<svg version="1.1" viewBox="0.0 0.0 958.0 592.0" fill="none" stroke="none" stroke-linecap="square" stroke-miterlimit="10" width="958" height="592" xmlns:xlink="http://www.w3.org/1999/xlink" xmlns="http://www.w3.org/2000/svg"><path fill="#ffffff" d="M0 0L958.0 0L958.0 592.0L0 592.0L0 0Z" fill-rule="nonzero"/><path fill="#ead1dc" d="M479.0 73.333336C496.9613 73.333336 514.8679 75.31224 532.3958 79.23424L479.0 317.86667Z" fill-rule="nonzero"/><path fill="#cfe2f3" d="M532.3958 79.23424C590.56464 92.249954 641.9764 126.064 676.96716 174.32028L479.0 317.86667Z" fill-rule="nonzero"/><path fill="#f6b26b" d="M676.96716 174.32028C716.0166 228.17407 731.44086 295.61243 719.6836 361.08655L479.0 317.86667Z" fill-rule="nonzero"/><path fill="#ffd966" d="M719.6836 361.08655C706.9794 431.83395 663.792 493.40887 601.5995 529.4462L479.0 317.86667Z" fill-rule="nonzero"/><path fill="#d9ead3" d="M601.5995 529.4462C512.61115 581.01044 400.86914 571.3818 322.01346 505.35474C243.15776 439.3277 214.04446 331.01608 249.17003 234.35179C284.2956 137.6875 376.1516 73.333336 479.0 73.333336L479.0 317.86667Z" fill-rule="nonzero"/><path fill="#000000" d="M486.1196 116.39528L487.33835 116.223404Q487.5571 117.27028 488.0571 117.73903Q488.57272 118.192154 489.3071 118.192154Q490.1821 118.192154 490.77585 117.598404Q491.3696 116.98903 491.3696 116.098404Q491.3696 115.254654 490.8071 114.70778Q490.26022 114.160904 489.41647 114.160904Q489.0571 114.160904 488.54147 114.285904L488.6821 113.20778Q488.8071 113.223404 488.8696 113.223404Q489.66647 113.223404 490.29147 112.817154Q490.91647 112.410904 490.91647 111.55153Q490.91647 110.879654 490.46335 110.442154Q490.01022 109.98903 489.27585 109.98903Q488.5571 109.98903 488.07272 110.442154Q487.60397 110.879654 487.46335 111.785904L486.2446 111.567154Q486.46335 110.33278 487.26022 109.660904Q488.0571 108.973404 489.2446 108.973404Q490.07272 108.973404 490.76022 109.33278Q491.44772 109.67653 491.8071 110.285904Q492.1821 110.89528 492.1821 111.58278Q492.1821 112.223404 491.83835 112.754654Q491.4946 113.285904 490.8071 113.61403Q491.69772 113.817154 492.1821 114.45778Q492.6821 115.098404 492.6821 116.08278Q492.6821 117.39528 491.71335 118.30153Q490.76022 119.20778 489.3071 119.20778Q487.97897 119.20778 487.10397 118.42653Q486.2446 117.64528 486.1196 116.39528ZM494.77585 119.035904L494.77585 117.629654L496.16647 117.629654L496.16647 119.035904Q496.16647 119.80153 495.88522 120.27028Q495.6196 120.754654 495.02585 121.02028L494.6821 120.48903Q495.07272 120.317154 495.26022 119.98903Q495.44772 119.660904 495.46335 119.035904L494.77585 119.035904ZM498.10397 116.410904L499.40085 116.30153Q499.54147 117.23903 500.0571 117.723404Q500.58835 118.192154 501.32272 118.192154Q502.21335 118.192154 502.82272 117.52028Q503.44772 116.848404 503.44772 115.754654Q503.44772 114.692154 502.85397 114.08278Q502.26022 113.473404 501.3071 113.473404Q500.71335 113.473404 500.22897 113.754654Q499.76022 114.02028 499.47897 114.442154L498.32272 114.30153L499.29147 109.14528L504.27585 109.14528L504.27585 110.33278L500.27585 110.33278L499.7446 113.02028Q500.65085 112.39528 501.63522 112.39528Q502.94772 112.39528 503.83835 113.30153Q504.7446 114.20778 504.7446 115.64528Q504.7446 117.004654 503.96335 117.98903Q502.9946 119.20778 501.32272 119.20778Q499.96335 119.20778 499.08835 118.442154Q498.22897 117.67653 498.10397 116.410904ZM506.33835 111.42653Q506.33835 110.348404 506.8696 109.598404Q507.41647 108.848404 508.44772 108.848404Q509.38522 108.848404 509.9946 109.52028Q510.6196 110.192154 510.6196 111.48903Q510.6196 112.77028 509.9946 113.45778Q509.3696 114.14528 508.46335 114.14528Q507.5571 114.14528 506.94772 113.473404Q506.33835 112.785904 506.33835 111.42653ZM508.47897 109.692154Q508.02585 109.692154 507.71335 110.098404Q507.41647 110.48903 507.41647 111.535904Q507.41647 112.504654 507.71335 112.89528Q508.02585 113.285904 508.47897 113.285904Q508.94772 113.285904 509.2446 112.89528Q509.5571 112.504654 509.5571 111.442154Q509.5571 110.473404 509.2446 110.08278Q508.9321 109.692154 508.47897 109.692154ZM508.47897 119.410904L513.9634 108.848404L514.9634 108.848404L509.51022 119.410904L508.47897 119.410904ZM512.82275 116.67653Q512.82275 115.598404 513.354 114.86403Q513.9009 114.11403 514.9321 114.11403Q515.8696 114.11403 516.4946 114.785904Q517.1196 115.45778 517.1196 116.754654Q517.1196 118.035904 516.4946 118.723404Q515.8696 119.410904 514.9321 119.410904Q514.0259 119.410904 513.4165 118.73903Q512.82275 118.05153 512.82275 116.67653ZM514.9634 114.95778Q514.4946 114.95778 514.19775 115.36403Q513.9009 115.754654 513.9009 116.80153Q513.9009 117.77028 514.19775 118.160904Q514.51025 118.55153 514.9634 118.55153Q515.4321 118.55153 515.729 118.160904Q516.0415 117.77028 516.0415 116.70778Q516.0415 115.73903 515.729 115.348404Q515.4321 114.95778 514.9634 114.95778Z" fill-rule="nonzero"/><path fill="#000000" d="M569.8498 162.26244L568.6154 162.26244L568.6154 154.41869Q568.1779 154.84056 567.44354 155.27806Q566.7248 155.69994 566.1623 155.90306L566.1623 154.71556Q567.19354 154.23119 567.95917 153.54369Q568.7404 152.85619 569.0529 152.19994L569.8498 152.19994L569.8498 162.26244ZM577.8498 162.26244L576.6154 162.26244L576.6154 154.41869Q576.1779 154.84056 575.44354 155.27806Q574.7248 155.69994 574.1623 155.90306L574.1623 154.71556Q575.19354 154.23119 575.95917 153.54369Q576.7404 152.85619 577.0529 152.19994L577.8498 152.19994L577.8498 162.26244ZM581.88104 162.26244L581.88104 160.85619L583.27167 160.85619L583.27167 162.26244Q583.27167 163.02806 582.9904 163.49681Q582.7248 163.98119 582.13104 164.24681L581.7873 163.71556Q582.1779 163.54369 582.3654 163.21556Q582.5529 162.88744 582.56854 162.26244L581.88104 162.26244ZM585.20917 159.63744L586.50604 159.52806Q586.64667 160.46556 587.1623 160.94994Q587.69354 161.41869 588.4279 161.41869Q589.31854 161.41869 589.9279 160.74681Q590.5529 160.07494 590.5529 158.98119Q590.5529 157.91869 589.95917 157.30931Q589.3654 156.69994 588.4123 156.69994Q587.81854 156.69994 587.33417 156.98119Q586.8654 157.24681 586.58417 157.66869L585.4279 157.52806L586.39667 152.37181L591.38104 152.37181L591.38104 153.55931L587.38104 153.55931L586.8498 156.24681Q587.75604 155.62181 588.7404 155.62181Q590.0529 155.62181 590.94354 156.52806Q591.8498 157.43431 591.8498 158.87181Q591.8498 160.23119 591.06854 161.21556Q590.0998 162.43431 588.4279 162.43431Q587.06854 162.43431 586.19354 161.66869Q585.33417 160.90306 585.20917 159.63744ZM593.44354 154.65306Q593.44354 153.57494 593.9748 152.82494Q594.52167 152.07494 595.5529 152.07494Q596.4904 152.07494 597.0998 152.74681Q597.7248 153.41869 597.7248 154.71556Q597.7248 155.99681 597.0998 156.68431Q596.4748 157.37181 595.56854 157.37181Q594.6623 157.37181 594.0529 156.69994Q593.44354 156.01244 593.44354 154.65306ZM595.58417 152.91869Q595.13104 152.91869 594.81854 153.32494Q594.52167 153.71556 594.52167 154.76244Q594.52167 155.73119 594.81854 156.12181Q595.13104 156.51244 595.58417 156.51244Q596.0529 156.51244 596.3498 156.12181Q596.6623 155.73119 596.6623 154.66869Q596.6623 153.69994 596.3498 153.30931Q596.0373 152.91869 595.58417 152.91869ZM595.58417 162.63744L601.06854 152.07494L602.06854 152.07494L596.6154 162.63744L595.58417 162.63744ZM599.9279 159.90306Q599.9279 158.82494 600.45917 158.09056Q601.00604 157.34056 602.0373 157.34056Q602.9748 157.34056 603.5998 158.01244Q604.2248 158.68431 604.2248 159.98119Q604.2248 161.26244 603.5998 161.94994Q602.9748 162.63744 602.0373 162.63744Q601.13104 162.63744 600.52167 161.96556Q599.9279 161.27806 599.9279 159.90306ZM602.06854 158.18431Q601.5998 158.18431 601.3029 158.59056Q601.00604 158.98119 601.00604 160.02806Q601.00604 160.99681 601.3029 161.38744Q601.6154 161.77806 602.06854 161.77806Q602.5373 161.77806 602.83417 161.38744Q603.14667 160.99681 603.14667 159.93431Q603.14667 158.96556 602.83417 158.57494Q602.5373 158.18431 602.06854 158.18431Z" fill-rule="nonzero"/><path fill="#000000" d="M652.3569 279.83643L651.1225 279.83643L651.1225 271.99268Q650.685 272.41455 649.9506 272.85205Q649.2319 273.27393 648.6694 273.47705L648.6694 272.28955Q649.7006 271.80518 650.46625 271.11768Q651.2475 270.43018 651.56 269.77393L652.3569 269.77393L652.3569 279.83643ZM662.185 278.64893L662.185 279.83643L655.56 279.83643Q655.5444 279.39893 655.7006 278.97705Q655.96625 278.30518 656.5131 277.64893Q657.0756 276.99268 658.1225 276.1333Q659.7631 274.78955 660.3256 274.0083Q660.90375 273.22705 660.90375 272.52393Q660.90375 271.78955 660.3725 271.28955Q659.8569 270.78955 659.02875 270.78955Q658.1381 270.78955 657.59125 271.3208Q657.06 271.85205 657.06 272.80518L655.7944 272.66455Q655.9194 271.2583 656.7631 270.52393Q657.6225 269.77393 659.0444 269.77393Q660.4975 269.77393 661.3256 270.5708Q662.1694 271.36768 662.1694 272.55518Q662.1694 273.16455 661.9194 273.74268Q661.685 274.3208 661.1069 274.96143Q660.5444 275.60205 659.21625 276.72705Q658.1069 277.64893 657.7944 277.99268Q657.4819 278.3208 657.27875 278.64893L662.185 278.64893ZM664.3881 279.83643L664.3881 278.43018L665.77875 278.43018L665.77875 279.83643Q665.77875 280.60205 665.4975 281.0708Q665.2319 281.55518 664.6381 281.8208L664.2944 281.28955Q664.685 281.11768 664.8725 280.78955Q665.06 280.46143 665.0756 279.83643L664.3881 279.83643ZM669.6069 274.39893Q668.84125 274.11768 668.46625 273.60205Q668.1069 273.08643 668.1069 272.35205Q668.1069 271.2583 668.8881 270.52393Q669.685 269.77393 670.9819 269.77393Q672.2944 269.77393 673.09125 270.53955Q673.90375 271.30518 673.90375 272.39893Q673.90375 273.08643 673.52875 273.60205Q673.1694 274.11768 672.4194 274.39893Q673.34125 274.6958 673.8256 275.36768Q674.31 276.03955 674.31 276.97705Q674.31 278.2583 673.40375 279.1333Q672.4975 280.0083 671.0131 280.0083Q669.52875 280.0083 668.6069 279.1333Q667.7006 278.24268 667.7006 276.93018Q667.7006 275.96143 668.2006 275.30518Q668.7006 274.6333 669.6069 274.39893ZM669.3725 272.3208Q669.3725 273.02393 669.8256 273.47705Q670.27875 273.93018 671.0131 273.93018Q671.7319 273.93018 672.185 273.49268Q672.6381 273.03955 672.6381 272.3833Q672.6381 271.71143 672.1694 271.2583Q671.7006 270.78955 670.9975 270.78955Q670.2944 270.78955 669.8256 271.24268Q669.3725 271.68018 669.3725 272.3208ZM668.96625 276.9458Q668.96625 277.47705 669.21625 277.97705Q669.46625 278.46143 669.9506 278.72705Q670.4506 278.99268 671.02875 278.99268Q671.90375 278.99268 672.46625 278.43018Q673.0444 277.86768 673.0444 276.99268Q673.0444 276.10205 672.4506 275.52393Q671.8725 274.93018 670.9819 274.93018Q670.1069 274.93018 669.52875 275.5083Q668.96625 276.08643 668.96625 276.9458ZM675.9506 272.22705Q675.9506 271.14893 676.4819 270.39893Q677.02875 269.64893 678.06 269.64893Q678.9975 269.64893 679.6069 270.3208Q680.2319 270.99268 680.2319 272.28955Q680.2319 273.5708 679.6069 274.2583Q678.9819 274.9458 678.0756 274.9458Q677.1694 274.9458 676.56 274.27393Q675.9506 273.58643 675.9506 272.22705ZM678.09125 270.49268Q677.6381 270.49268 677.3256 270.89893Q677.02875 271.28955 677.02875 272.33643Q677.02875 273.30518 677.3256 273.6958Q677.6381 274.08643 678.09125 274.08643Q678.56 274.08643 678.8569 273.6958Q679.1694 273.30518 679.1694 272.24268Q679.1694 271.27393 678.8569 270.8833Q678.5444 270.49268 678.09125 270.49268ZM678.09125 280.21143L683.5756 269.64893L684.5756 269.64893L679.1225 280.21143L678.09125 280.21143ZM682.435 277.47705Q682.435 276.39893 682.96625 275.66455Q683.5131 274.91455 684.5444 274.91455Q685.4819 274.91455 686.1069 275.58643Q686.7319 276.2583 686.7319 277.55518Q686.7319 278.83643 686.1069 279.52393Q685.4819 280.21143 684.5444 280.21143Q683.6381 280.21143 683.02875 279.53955Q682.435 278.85205 682.435 277.47705ZM684.5756 275.7583Q684.1069 275.7583 683.81 276.16455Q683.5131 276.55518 683.5131 277.60205Q683.5131 278.5708 683.81 278.96143Q684.1225 279.35205 684.5756 279.35205Q685.0444 279.35205 685.34125 278.96143Q685.65375 278.5708 685.65375 277.5083Q685.65375 276.53955 685.34125 276.14893Q685.0444 275.7583 684.5756 275.7583Z" fill-rule="nonzero"/><path fill="#000000" d="M619.364 431.68243L618.12964 431.68243L618.12964 423.83868Q617.69214 424.26056 616.95776 424.69806Q616.239 425.11993 615.6765 425.32306L615.6765 424.13556Q616.70776 423.65118 617.4734 422.96368Q618.25464 422.27618 618.56714 421.61993L619.364 421.61993L619.364 431.68243ZM622.739 429.0418L623.95776 428.86993Q624.1765 429.9168 624.6765 430.38556Q625.19214 430.83868 625.9265 430.83868Q626.8015 430.83868 627.39526 430.24493Q627.989 429.63556 627.989 428.74493Q627.989 427.90118 627.4265 427.3543Q626.87964 426.80743 626.0359 426.80743Q625.6765 426.80743 625.1609 426.93243L625.3015 425.8543Q625.4265 425.86993 625.489 425.86993Q626.2859 425.86993 626.9109 425.46368Q627.5359 425.05743 627.5359 424.19806Q627.5359 423.52618 627.08276 423.08868Q626.62964 422.63556 625.89526 422.63556Q625.1765 422.63556 624.69214 423.08868Q624.2234 423.52618 624.08276 424.43243L622.864 424.21368Q623.08276 422.9793 623.87964 422.30743Q624.6765 421.61993 625.864 421.61993Q626.69214 421.61993 627.37964 421.9793Q628.06714 422.32306 628.4265 422.93243Q628.8015 423.5418 628.8015 424.2293Q628.8015 424.86993 628.45776 425.40118Q628.114 425.93243 627.4265 426.26056Q628.31714 426.46368 628.8015 427.1043Q629.3015 427.74493 629.3015 428.7293Q629.3015 430.0418 628.33276 430.94806Q627.37964 431.8543 625.9265 431.8543Q624.5984 431.8543 623.7234 431.07306Q622.864 430.2918 622.739 429.0418ZM631.39526 431.68243L631.39526 430.27618L632.7859 430.27618L632.7859 431.68243Q632.7859 432.44806 632.50464 432.9168Q632.239 433.40118 631.64526 433.6668L631.3015 433.13556Q631.69214 432.96368 631.87964 432.63556Q632.06714 432.30743 632.08276 431.68243L631.39526 431.68243ZM636.614 426.24493Q635.8484 425.96368 635.4734 425.44806Q635.114 424.93243 635.114 424.19806Q635.114 423.1043 635.89526 422.36993Q636.69214 421.61993 637.989 421.61993Q639.3015 421.61993 640.0984 422.38556Q640.9109 423.15118 640.9109 424.24493Q640.9109 424.93243 640.5359 425.44806Q640.1765 425.96368 639.4265 426.24493Q640.3484 426.5418 640.83276 427.21368Q641.31714 427.88556 641.31714 428.82306Q641.31714 430.1043 640.4109 430.9793Q639.50464 431.8543 638.02026 431.8543Q636.5359 431.8543 635.614 430.9793Q634.70776 430.08868 634.70776 428.77618Q634.70776 427.80743 635.20776 427.15118Q635.70776 426.4793 636.614 426.24493ZM636.37964 424.1668Q636.37964 424.86993 636.83276 425.32306Q637.2859 425.77618 638.02026 425.77618Q638.739 425.77618 639.19214 425.33868Q639.64526 424.88556 639.64526 424.2293Q639.64526 423.55743 639.1765 423.1043Q638.70776 422.63556 638.00464 422.63556Q637.3015 422.63556 636.83276 423.08868Q636.37964 423.52618 636.37964 424.1668ZM635.9734 428.7918Q635.9734 429.32306 636.2234 429.82306Q636.4734 430.30743 636.95776 430.57306Q637.45776 430.83868 638.0359 430.83868Q638.9109 430.83868 639.4734 430.27618Q640.0515 429.71368 640.0515 428.83868Q640.0515 427.94806 639.45776 427.36993Q638.87964 426.77618 637.989 426.77618Q637.114 426.77618 636.5359 427.3543Q635.9734 427.93243 635.9734 428.7918ZM642.95776 424.07306Q642.95776 422.99493 643.489 422.24493Q644.0359 421.49493 645.06714 421.49493Q646.00464 421.49493 646.614 422.1668Q647.239 422.83868 647.239 424.13556Q647.239 425.4168 646.614 426.1043Q645.989 426.7918 645.08276 426.7918Q644.1765 426.7918 643.56714 426.11993Q642.95776 425.43243 642.95776 424.07306ZM645.0984 422.33868Q644.64526 422.33868 644.33276 422.74493Q644.0359 423.13556 644.0359 424.18243Q644.0359 425.15118 644.33276 425.5418Q644.64526 425.93243 645.0984 425.93243Q645.56714 425.93243 645.864 425.5418Q646.1765 425.15118 646.1765 424.08868Q646.1765 423.11993 645.864 422.7293Q645.5515 422.33868 645.0984 422.33868ZM645.0984 432.05743L650.58276 421.49493L651.58276 421.49493L646.12964 432.05743L645.0984 432.05743ZM649.44214 429.32306Q649.44214 428.24493 649.9734 427.51056Q650.52026 426.76056 651.5515 426.76056Q652.489 426.76056 653.114 427.43243Q653.739 428.1043 653.739 429.40118Q653.739 430.68243 653.114 431.36993Q652.489 432.05743 651.5515 432.05743Q650.64526 432.05743 650.0359 431.38556Q649.44214 430.69806 649.44214 429.32306ZM651.58276 427.6043Q651.114 427.6043 650.81714 428.01056Q650.52026 428.40118 650.52026 429.44806Q650.52026 430.4168 650.81714 430.80743Q651.12964 431.19806 651.58276 431.19806Q652.0515 431.19806 652.3484 430.80743Q652.6609 430.4168 652.6609 429.3543Q652.6609 428.38556 652.3484 427.99493Q652.0515 427.6043 651.58276 427.6043Z" fill-rule="nonzero"/><path fill="#000000" d="M273.79587 370.17844L275.09274 370.06906Q275.23337 371.00656 275.749 371.49094Q276.28024 371.9597 277.01462 371.9597Q277.90524 371.9597 278.51462 371.2878Q279.13962 370.61594 279.13962 369.5222Q279.13962 368.4597 278.54587 367.8503Q277.95212 367.24094 276.999 367.24094Q276.40524 367.24094 275.92087 367.5222Q275.45212 367.7878 275.17087 368.2097L274.01462 368.06906L274.98337 362.9128L279.96774 362.9128L279.96774 364.1003L275.96774 364.1003L275.4365 366.7878Q276.34274 366.1628 277.32712 366.1628Q278.63962 366.1628 279.53024 367.06906Q280.4365 367.9753 280.4365 369.4128Q280.4365 370.7722 279.65524 371.75656Q278.6865 372.9753 277.01462 372.9753Q275.65524 372.9753 274.78024 372.2097Q273.92087 371.44406 273.79587 370.17844ZM283.6865 367.36594Q282.92087 367.0847 282.54587 366.56906Q282.1865 366.05344 282.1865 365.31906Q282.1865 364.2253 282.96774 363.49094Q283.76462 362.74094 285.0615 362.74094Q286.374 362.74094 287.17087 363.50656Q287.98337 364.2722 287.98337 365.36594Q287.98337 366.05344 287.60837 366.56906Q287.249 367.0847 286.499 367.36594Q287.42087 367.6628 287.90524 368.3347Q288.38962 369.00656 288.38962 369.94406Q288.38962 371.2253 287.48337 372.1003Q286.57712 372.9753 285.09274 372.9753Q283.60837 372.9753 282.6865 372.1003Q281.78024 371.2097 281.78024 369.8972Q281.78024 368.92844 282.28024 368.2722Q282.78024 367.6003 283.6865 367.36594ZM283.45212 365.2878Q283.45212 365.99094 283.90524 366.44406Q284.35837 366.8972 285.09274 366.8972Q285.8115 366.8972 286.26462 366.4597Q286.71774 366.00656 286.71774 365.3503Q286.71774 364.67844 286.249 364.2253Q285.78024 363.75656 285.07712 363.75656Q284.374 363.75656 283.90524 364.2097Q283.45212 364.6472 283.45212 365.2878ZM283.04587 369.9128Q283.04587 370.44406 283.29587 370.94406Q283.54587 371.42844 284.03024 371.69406Q284.53024 371.9597 285.10837 371.9597Q285.98337 371.9597 286.54587 371.3972Q287.124 370.8347 287.124 369.9597Q287.124 369.06906 286.53024 368.49094Q285.95212 367.8972 285.0615 367.8972Q284.1865 367.8972 283.60837 368.4753Q283.04587 369.05344 283.04587 369.9128ZM290.46774 372.80344L290.46774 371.3972L291.85837 371.3972L291.85837 372.80344Q291.85837 373.56906 291.57712 374.0378Q291.3115 374.5222 290.71774 374.7878L290.374 374.25656Q290.76462 374.0847 290.95212 373.75656Q291.13962 373.42844 291.15524 372.80344L290.46774 372.80344ZM297.749 372.80344L297.749 370.3972L293.38962 370.3972L293.38962 369.2722L297.96774 362.7878L298.96774 362.7878L298.96774 369.2722L300.32712 369.2722L300.32712 370.3972L298.96774 370.3972L298.96774 372.80344L297.749 372.80344ZM297.749 369.2722L297.749 364.75656L294.60837 369.2722L297.749 369.2722ZM302.03024 365.19406Q302.03024 364.11594 302.5615 363.36594Q303.10837 362.61594 304.13962 362.61594Q305.07712 362.61594 305.6865 363.2878Q306.3115 363.9597 306.3115 365.25656Q306.3115 366.5378 305.6865 367.2253Q305.0615 367.9128 304.15524 367.9128Q303.249 367.9128 302.63962 367.24094Q302.03024 366.55344 302.03024 365.19406ZM304.17087 363.4597Q303.71774 363.4597 303.40524 363.86594Q303.10837 364.25656 303.10837 365.30344Q303.10837 366.2722 303.40524 366.6628Q303.71774 367.05344 304.17087 367.05344Q304.63962 367.05344 304.9365 366.6628Q305.249 366.2722 305.249 365.2097Q305.249 364.24094 304.9365 363.8503Q304.624 363.4597 304.17087 363.4597ZM304.17087 373.17844L309.65524 362.61594L310.65524 362.61594L305.20212 373.17844L304.17087 373.17844ZM308.51462 370.44406Q308.51462 369.36594 309.04587 368.63156Q309.59274 367.88156 310.624 367.88156Q311.5615 367.88156 312.1865 368.55344Q312.8115 369.2253 312.8115 370.5222Q312.8115 371.80344 312.1865 372.49094Q311.5615 373.17844 310.624 373.17844Q309.71774 373.17844 309.10837 372.50656Q308.51462 371.81906 308.51462 370.44406ZM310.65524 368.7253Q310.1865 368.7253 309.88962 369.13156Q309.59274 369.5222 309.59274 370.56906Q309.59274 371.5378 309.88962 371.92844Q310.20212 372.31906 310.65524 372.31906Q311.124 372.31906 311.42087 371.92844Q311.73337 371.5378 311.73337 370.4753Q311.73337 369.50656 311.42087 369.11594Q311.124 368.7253 310.65524 368.7253Z" fill-rule="nonzero"/><path fill="#1a1a1a" d="M39.00625 368.65283L40.521873 369.02783Q40.053123 370.90283 38.803123 371.8872Q37.56875 372.87158 35.7875 372.87158Q33.928123 372.87158 32.771873 372.12158Q31.615625 371.35596 31.00625 369.93408Q30.396875 368.49658 30.396875 366.85596Q30.396875 365.05908 31.084375 363.73096Q31.771875 362.40283 33.021873 361.71533Q34.2875 361.0122 35.803123 361.0122Q37.521873 361.0122 38.69375 361.8872Q39.865623 362.7622 40.334373 364.35596L38.834373 364.6997Q38.44375 363.4497 37.678123 362.8872Q36.928123 362.30908 35.771873 362.30908Q34.459373 362.30908 33.56875 362.9497Q32.678123 363.5747 32.31875 364.65283Q31.959375 365.71533 31.959375 366.84033Q31.959375 368.30908 32.38125 369.40283Q32.81875 370.48096 33.709373 371.02783Q34.615623 371.55908 35.6625 371.55908Q36.928123 371.55908 37.803123 370.8247Q38.69375 370.09033 39.00625 368.65283ZM42.38125 367.09033Q42.38125 364.23096 43.9125 362.62158Q45.44375 361.0122 47.865623 361.0122Q49.44375 361.0122 50.709373 361.77783Q51.990623 362.52783 52.6625 363.8872Q53.334373 365.23096 53.334373 366.9497Q53.334373 368.6997 52.63125 370.0747Q51.928123 371.4497 50.63125 372.16846Q49.35 372.87158 47.85 372.87158Q46.240623 372.87158 44.959373 372.09033Q43.69375 371.29346 43.0375 369.9497Q42.38125 368.59033 42.38125 367.09033ZM43.94375 367.10596Q43.94375 369.18408 45.053123 370.37158Q46.1625 371.55908 47.85 371.55908Q49.553123 371.55908 50.6625 370.35596Q51.771873 369.15283 51.771873 366.9497Q51.771873 365.54346 51.2875 364.5122Q50.81875 363.46533 49.9125 362.8872Q49.00625 362.30908 47.865623 362.30908Q46.25625 362.30908 45.1 363.41846Q43.94375 364.52783 43.94375 367.10596ZM63.00625 368.65283L64.52187 369.02783Q64.05312 370.90283 62.803123 371.8872Q61.56875 372.87158 59.7875 372.87158Q57.928123 372.87158 56.771873 372.12158Q55.615623 371.35596 55.00625 369.93408Q54.396873 368.49658 54.396873 366.85596Q54.396873 365.05908 55.084373 363.73096Q55.771873 362.40283 57.021873 361.71533Q58.2875 361.0122 59.803123 361.0122Q61.521873 361.0122 62.69375 361.8872Q63.865623 362.7622 64.33437 364.35596L62.834373 364.6997Q62.44375 363.4497 61.678123 362.8872Q60.928123 362.30908 59.771873 362.30908Q58.459373 362.30908 57.56875 362.9497Q56.678123 363.5747 56.31875 364.65283Q55.959373 365.71533 55.959373 366.84033Q55.959373 368.30908 56.38125 369.40283Q56.81875 370.48096 57.709373 371.02783Q58.615623 371.55908 59.6625 371.55908Q60.928123 371.55908 61.803123 370.8247Q62.69375 370.09033 63.00625 368.65283ZM66.38125 367.09033Q66.38125 364.23096 67.9125 362.62158Q69.44375 361.0122 71.86562 361.0122Q73.44375 361.0122 74.70937 361.77783Q75.99062 362.52783 76.6625 363.8872Q77.33437 365.23096 77.33437 366.9497Q77.33437 368.6997 76.63125 370.0747Q75.92812 371.4497 74.63125 372.16846Q73.35 372.87158 71.85 372.87158Q70.24062 372.87158 68.95937 372.09033Q67.69375 371.29346 67.0375 369.9497Q66.38125 368.59033 66.38125 367.09033ZM67.94375 367.10596Q67.94375 369.18408 69.05312 370.37158Q70.1625 371.55908 71.85 371.55908Q73.55312 371.55908 74.6625 370.35596Q75.77187 369.15283 75.77187 366.9497Q75.77187 365.54346 75.2875 364.5122Q74.81875 363.46533 73.9125 362.8872Q73.00625 362.30908 71.86562 362.30908Q70.25625 362.30908 69.1 363.41846Q67.94375 364.52783 67.94375 367.10596Z" fill-rule="nonzero"/><path fill="#9e9e9e" d="M30.271875 391.66846L31.740625 391.54346Q31.9125 392.62158 32.50625 393.16846Q33.1 393.6997 33.94375 393.6997Q34.959373 393.6997 35.6625 392.93408Q36.365623 392.16846 36.365623 390.90283Q36.365623 389.6997 35.69375 389.0122Q35.021873 388.30908 33.928123 388.30908Q33.240623 388.30908 32.69375 388.62158Q32.146873 388.93408 31.834375 389.41846L30.521875 389.24658L31.63125 383.37158L37.31875 383.37158L37.31875 384.71533L32.75625 384.71533L32.13125 387.79346Q33.1625 387.0747 34.303123 387.0747Q35.803123 387.0747 36.834373 388.12158Q37.865623 389.15283 37.865623 390.77783Q37.865623 392.34033 36.959373 393.46533Q35.85 394.87158 33.94375 394.87158Q32.38125 394.87158 31.396875 393.99658Q30.4125 393.10596 30.271875 391.66846ZM41.428123 388.4497Q40.553123 388.1372 40.13125 387.54346Q39.709373 386.9497 39.709373 386.12158Q39.709373 384.87158 40.6 384.02783Q41.50625 383.16846 43.00625 383.16846Q44.50625 383.16846 45.4125 384.04346Q46.334373 384.90283 46.334373 386.15283Q46.334373 386.9497 45.9125 387.54346Q45.490623 388.1372 44.646873 388.4497Q45.69375 388.79346 46.240623 389.55908Q46.803123 390.3247 46.803123 391.3872Q46.803123 392.85596 45.75625 393.87158Q44.725 394.87158 43.021873 394.87158Q41.334373 394.87158 40.2875 393.87158Q39.25625 392.85596 39.25625 391.35596Q39.25625 390.23096 39.81875 389.48096Q40.38125 388.73096 41.428123 388.4497ZM41.146873 386.0747Q41.146873 386.8872 41.6625 387.40283Q42.19375 387.91846 43.0375 387.91846Q43.85 387.91846 44.365623 387.40283Q44.88125 386.8872 44.88125 386.15283Q44.88125 385.37158 44.35 384.85596Q43.81875 384.3247 43.021873 384.3247Q42.209373 384.3247 41.678123 384.84033Q41.146873 385.35596 41.146873 386.0747ZM40.69375 391.35596Q40.69375 391.96533 40.975 392.52783Q41.271873 393.09033 41.834373 393.40283Q42.396873 393.6997 43.0375 393.6997Q44.053123 393.6997 44.709373 393.05908Q45.365623 392.40283 45.365623 391.40283Q45.365623 390.3872 44.678123 389.73096Q44.00625 389.05908 42.990623 389.05908Q42.00625 389.05908 41.35 389.71533Q40.69375 390.37158 40.69375 391.35596ZM49.021873 394.66846L49.021873 393.05908L50.63125 393.05908L50.63125 394.66846Q50.63125 395.55908 50.31875 396.09033Q50.00625 396.6372 49.31875 396.93408L48.928123 396.34033Q49.38125 396.1372 49.584373 395.7622Q49.803123 395.3872 49.81875 394.66846L49.021873 394.66846ZM56.771873 394.66846L56.771873 391.91846L51.803123 391.91846L51.803123 390.6372L57.0375 383.21533L58.178123 383.21533L58.178123 390.6372L59.725 390.6372L59.725 391.91846L58.178123 391.91846L58.178123 394.66846L56.771873 394.66846ZM56.771873 390.6372L56.771873 385.46533L53.19375 390.6372L56.771873 390.6372ZM61.5375 385.96533Q61.5375 384.73096 62.146873 383.87158Q62.771873 383.0122 63.94375 383.0122Q65.02187 383.0122 65.725 383.79346Q66.42812 384.55908 66.42812 386.04346Q66.42812 387.49658 65.70937 388.29346Q65.00625 389.0747 63.959373 389.0747Q62.9125 389.0747 62.225 388.30908Q61.5375 387.52783 61.5375 385.96533ZM63.975 383.98096Q63.459373 383.98096 63.1 384.43408Q62.75625 384.8872 62.75625 386.10596Q62.75625 387.1997 63.1 387.65283Q63.459373 388.10596 63.975 388.10596Q64.50625 388.10596 64.85 387.65283Q65.20937 387.1997 65.20937 385.99658Q65.20937 384.8872 64.85 384.43408Q64.50625 383.98096 63.975 383.98096ZM63.990623 395.09033L70.25625 383.0122L71.39687 383.0122L65.14687 395.09033L63.990623 395.09033ZM68.94375 391.98096Q68.94375 390.74658 69.55312 389.8872Q70.17812 389.02783 71.35 389.02783Q72.42812 389.02783 73.13125 389.80908Q73.85 390.5747 73.85 392.05908Q73.85 393.5122 73.13125 394.30908Q72.4125 395.09033 71.36562 395.09033Q70.31875 395.09033 69.63125 394.30908Q68.94375 393.52783 68.94375 391.98096ZM71.39687 389.99658Q70.86562 389.99658 70.50625 390.4497Q70.1625 390.90283 70.1625 392.12158Q70.1625 393.21533 70.50625 393.66846Q70.86562 394.12158 71.38125 394.12158Q71.92812 394.12158 72.27187 393.66846Q72.61562 393.21533 72.61562 392.0122Q72.61562 390.90283 72.25625 390.4497Q71.9125 389.99658 71.39687 389.99658Z" fill-rule="nonzero"/><path stroke="#757575" stroke-width="1.0" stroke-linecap="butt" d="M29.6 378.16846L228.46666 378.16846L254.65633 378.16846" fill-rule="nonzero"/><path fill="#9e9e9e" d="M256.65634 378.16846C256.65634 377.06387 255.7609 376.16846 254.65633 376.16846C253.55176 376.16846 252.65633 377.06387 252.65633 378.16846C252.65633 379.273 253.55176 380.16846 254.65633 380.16846C255.7609 380.16846 256.65634 379.273 256.65634 378.16846" fill-rule="nonzero"/><path fill="#1a1a1a" d="M869.5563 88.333336L869.5563 78.22396L865.775 78.22396L865.775 76.88021L874.85315 76.88021L874.85315 78.22396L871.0719 78.22396L871.0719 88.333336L869.5563 88.333336ZM881.1344 85.66146L882.5875 85.833336Q882.2438 87.114586 881.3063 87.81771Q880.3844 88.520836 878.9469 88.520836Q877.1188 88.520836 876.0563 87.395836Q874.9938 86.270836 874.9938 84.25521Q874.9938 82.16146 876.0719 81.00521Q877.15 79.84896 878.8688 79.84896Q880.525 79.84896 881.5719 80.989586Q882.6344 82.114586 882.6344 84.16146Q882.6344 84.28646 882.6344 84.53646L876.4469 84.53646Q876.525 85.91146 877.2125 86.645836Q877.91565 87.364586 878.9469 87.364586Q879.72815 87.364586 880.275 86.958336Q880.8219 86.552086 881.1344 85.66146ZM876.525 83.38021L881.15 83.38021Q881.0563 82.333336 880.6188 81.81771Q879.9469 81.00521 878.8844 81.00521Q877.91565 81.00521 877.2438 81.66146Q876.5875 82.302086 876.525 83.38021ZM883.525 88.333336L886.5563 84.020836L883.7438 80.03646L885.5094 80.03646L886.775 81.97396Q887.1344 82.53646 887.35315 82.91146Q887.6969 82.395836 887.9938 81.989586L889.3844 80.03646L891.0719 80.03646L888.1969 83.94271L891.29065 88.333336L889.5563 88.333336L887.85315 85.75521L887.4 85.052086L885.22815 88.333336L883.525 88.333336ZM894.525 87.06771L894.72815 88.31771Q894.1344 88.44271 893.66565 88.44271Q892.9 88.44271 892.47815 88.208336Q892.0563 87.958336 891.8844 87.56771Q891.7125 87.16146 891.7125 85.895836L891.7125 81.13021L890.6813 81.13021L890.6813 80.03646L891.7125 80.03646L891.7125 77.97396L893.1188 77.13021L893.1188 80.03646L894.525 80.03646L894.525 81.13021L893.1188 81.13021L893.1188 85.97396Q893.1188 86.583336 893.1813 86.75521Q893.2594 86.927086 893.4313 87.03646Q893.60315 87.13021 893.91565 87.13021Q894.15 87.13021 894.525 87.06771ZM898.91565 88.333336L894.47815 76.88021L896.1188 76.88021L899.0875 85.19271Q899.4469 86.19271 899.6969 87.06771Q899.9625 86.13021 900.3063 85.19271L903.4 76.88021L904.9469 76.88021L900.4625 88.333336L898.91565 88.333336ZM915.3219 87.09896Q916.3688 87.833336 917.2594 88.16146L916.8219 89.22396Q915.5875 88.78646 914.35315 87.81771Q913.0875 88.53646 911.54065 88.53646Q909.9938 88.53646 908.72815 87.78646Q907.4625 87.020836 906.775 85.66146Q906.0875 84.302086 906.0875 82.59896Q906.0875 80.91146 906.775 79.520836Q907.4625 78.13021 908.72815 77.41146Q910.0094 76.677086 911.5719 76.677086Q913.16565 76.677086 914.4313 77.427086Q915.7125 78.177086 916.3688 79.53646Q917.04065 80.895836 917.04065 82.59896Q917.04065 84.00521 916.60315 85.145836Q916.1813 86.270836 915.3219 87.09896ZM911.97815 85.16146Q913.29065 85.53646 914.15 86.25521Q915.47815 85.03646 915.47815 82.59896Q915.47815 81.208336 915.0094 80.177086Q914.54065 79.13021 913.6188 78.552086Q912.7125 77.97396 911.5875 77.97396Q909.8844 77.97396 908.7594 79.145836Q907.65 80.302086 907.65 82.59896Q907.65 84.833336 908.7594 86.03646Q909.8688 87.22396 911.5875 87.22396Q912.4 87.22396 913.1188 86.927086Q912.4 86.458336 911.6188 86.270836L911.97815 85.16146ZM917.3688 88.333336L921.775 76.88021L923.41565 76.88021L928.10315 88.333336L926.3688 88.333336L925.04065 84.864586L920.2438 84.864586L918.9938 88.333336L917.3688 88.333336ZM920.6813 83.63021L924.5719 83.63021L923.3688 80.458336Q922.8219 79.00521 922.5563 78.083336Q922.3375 79.177086 921.9469 80.270836L920.6813 83.63021Z" fill-rule="nonzero"/><path fill="#9e9e9e" d="M893.0719 107.302086L894.47815 107.114586Q894.72815 108.31771 895.3063 108.84896Q895.8844 109.364586 896.72815 109.364586Q897.7125 109.364586 898.4 108.677086Q899.0875 107.989586 899.0875 106.97396Q899.0875 106.00521 898.4469 105.38021Q897.8219 104.75521 896.8375 104.75521Q896.4469 104.75521 895.85315 104.91146L896.0094 103.677086Q896.15 103.69271 896.22815 103.69271Q897.1344 103.69271 897.85315 103.22396Q898.5719 102.75521 898.5719 101.770836Q898.5719 101.00521 898.04065 100.50521Q897.525 99.989586 896.6969 99.989586Q895.8688 99.989586 895.3219 100.50521Q894.775 101.020836 894.6188 102.052086L893.2125 101.802086Q893.47815 100.38021 894.3844 99.614586Q895.3063 98.833336 896.66565 98.833336Q897.60315 98.833336 898.3844 99.239586Q899.1813 99.63021 899.5875 100.333336Q900.0094 101.020836 900.0094 101.802086Q900.0094 102.552086 899.60315 103.16146Q899.2125 103.770836 898.4313 104.13021Q899.4469 104.364586 900.0094 105.09896Q900.5719 105.833336 900.5719 106.94271Q900.5719 108.44271 899.47815 109.489586Q898.3844 110.53646 896.7125 110.53646Q895.2125 110.53646 894.2125 109.645836Q893.2125 108.739586 893.0719 107.302086ZM902.8219 110.333336L902.8219 108.72396L904.4313 108.72396L904.4313 110.333336Q904.4313 111.22396 904.1188 111.75521Q903.8063 112.302086 903.1188 112.59896L902.72815 112.00521Q903.1813 111.802086 903.3844 111.427086Q903.60315 111.052086 903.6188 110.333336L902.8219 110.333336ZM906.0719 107.333336L907.54065 107.208336Q907.7125 108.28646 908.3063 108.833336Q908.9 109.364586 909.7438 109.364586Q910.7594 109.364586 911.4625 108.59896Q912.16565 107.833336 912.16565 106.56771Q912.16565 105.364586 911.4938 104.677086Q910.8219 103.97396 909.72815 103.97396Q909.04065 103.97396 908.4938 104.28646Q907.9469 104.59896 907.6344 105.083336L906.3219 104.91146L907.4313 99.03646L913.1188 99.03646L913.1188 100.38021L908.5563 100.38021L907.9313 103.458336Q908.9625 102.739586 910.10315 102.739586Q911.60315 102.739586 912.6344 103.78646Q913.66565 104.81771 913.66565 106.44271Q913.66565 108.00521 912.7594 109.13021Q911.65 110.53646 909.7438 110.53646Q908.1813 110.53646 907.1969 109.66146Q906.2125 108.770836 906.0719 107.333336ZM915.3375 101.63021Q915.3375 100.395836 915.9469 99.53646Q916.5719 98.677086 917.7438 98.677086Q918.8219 98.677086 919.525 99.458336Q920.22815 100.22396 920.22815 101.708336Q920.22815 103.16146 919.5094 103.958336Q918.8063 104.739586 917.7594 104.739586Q916.7125 104.739586 916.025 103.97396Q915.3375 103.19271 915.3375 101.63021ZM917.775 99.645836Q917.2594 99.645836 916.9 100.09896Q916.5563 100.552086 916.5563 101.770836Q916.5563 102.864586 916.9 103.31771Q917.2594 103.770836 917.775 103.770836Q918.3063 103.770836 918.65 103.31771Q919.0094 102.864586 919.0094 101.66146Q919.0094 100.552086 918.65 100.09896Q918.3063 99.645836 917.775 99.645836ZM917.79065 110.75521L924.0563 98.677086L925.1969 98.677086L918.9469 110.75521L917.79065 110.75521ZM922.7438 107.645836Q922.7438 106.41146 923.35315 105.552086Q923.97815 104.69271 925.15 104.69271Q926.22815 104.69271 926.9313 105.47396Q927.65 106.239586 927.65 107.72396Q927.65 109.177086 926.9313 109.97396Q926.2125 110.75521 925.16565 110.75521Q924.1188 110.75521 923.4313 109.97396Q922.7438 109.19271 922.7438 107.645836ZM925.1969 105.66146Q924.66565 105.66146 924.3063 106.114586Q923.9625 106.56771 923.9625 107.78646Q923.9625 108.88021 924.3063 109.333336Q924.66565 109.78646 925.1813 109.78646Q925.72815 109.78646 926.0719 109.333336Q926.41565 108.88021 926.41565 107.677086Q926.41565 106.56771 926.0563 106.114586Q925.7125 105.66146 925.1969 105.66146Z" fill-rule="nonzero"/><path stroke="#757575" stroke-width="1.0" stroke-linecap="butt" d="M928.4 93.833336L729.5333 93.833336L504.51743 86.96572" fill-rule="nonzero"/><path fill="#9e9e9e" d="M506.51743 86.96572C506.51743 85.861145 505.622 84.96572 504.51743 84.96572C503.41284 84.96572 502.51743 85.861145 502.51743 86.96572C502.51743 88.07029 503.41284 88.96572 504.51743 88.96572C505.622 88.96572 506.51743 88.07029 506.51743 86.96572" fill-rule="nonzero"/><path fill="#1a1a1a" d="M899.9938 124.83333L899.9938 123.48958L904.85315 123.48958L904.85315 127.73958Q903.72815 128.6302 902.54065 129.08333Q901.35315 129.53645 900.10315 129.53645Q898.41565 129.53645 897.04065 128.8177Q895.66565 128.08333 894.9625 126.72395Q894.2594 125.34895 894.2594 123.66145Q894.2594 121.98958 894.9469 120.53645Q895.65 119.08333 896.9625 118.3802Q898.275 117.67708 899.9938 117.67708Q901.22815 117.67708 902.22815 118.08333Q903.2438 118.48958 903.8063 119.20833Q904.3844 119.92708 904.6813 121.08333L903.3063 121.45833Q903.0563 120.58333 902.66565 120.08333Q902.29065 119.58333 901.5719 119.28645Q900.8688 118.97395 899.9938 118.97395Q898.9625 118.97395 898.1969 119.30208Q897.4469 119.61458 896.97815 120.1302Q896.5094 120.64583 896.2594 121.2552Q895.8219 122.3177 895.8219 123.5677Q895.8219 125.09895 896.3375 126.1302Q896.8688 127.16145 897.8688 127.66145Q898.8844 128.16145 900.025 128.16145Q901.0094 128.16145 901.9469 127.78645Q902.8844 127.39583 903.3688 126.97395L903.3688 124.83333L899.9938 124.83333ZM915.3219 128.09895Q916.3688 128.83333 917.2594 129.16145L916.8219 130.22395Q915.5875 129.78645 914.35315 128.8177Q913.0875 129.53645 911.54065 129.53645Q909.9938 129.53645 908.72815 128.78645Q907.4625 128.02083 906.775 126.66145Q906.0875 125.30208 906.0875 123.59895Q906.0875 121.91145 906.775 120.52083Q907.4625 119.1302 908.72815 118.41145Q910.0094 117.67708 911.5719 117.67708Q913.16565 117.67708 914.4313 118.42708Q915.7125 119.17708 916.3688 120.53645Q917.04065 121.89583 917.04065 123.59895Q917.04065 125.0052 916.60315 126.14583Q916.1813 127.27083 915.3219 128.09895ZM911.97815 126.16145Q913.29065 126.53645 914.15 127.2552Q915.47815 126.03645 915.47815 123.59895Q915.47815 122.20833 915.0094 121.17708Q914.54065 120.1302 913.6188 119.55208Q912.7125 118.97395 911.5875 118.97395Q909.8844 118.97395 908.7594 120.14583Q907.65 121.30208 907.65 123.59895Q907.65 125.83333 908.7594 127.03645Q909.8688 128.22395 911.5875 128.22395Q912.4 128.22395 913.1188 127.92708Q912.4 127.45833 911.6188 127.27083L911.97815 126.16145ZM917.3688 129.33333L921.775 117.8802L923.41565 117.8802L928.10315 129.33333L926.3688 129.33333L925.04065 125.86458L920.2438 125.86458L918.9938 129.33333L917.3688 129.33333ZM920.6813 124.6302L924.5719 124.6302L923.3688 121.45833Q922.8219 120.0052 922.5563 119.08333Q922.3375 120.17708 921.9469 121.27083L920.6813 124.6302Z" fill-rule="nonzero"/><path fill="#9e9e9e" d="M889.3688 151.33333L887.9625 151.33333L887.9625 142.36458Q887.4469 142.84895 886.6188 143.33333Q885.8063 143.8177 885.15 144.0677L885.15 142.70833Q886.3219 142.14583 887.1969 141.36458Q888.0875 140.5677 888.4625 139.83333L889.3688 139.83333L889.3688 151.33333ZM898.3688 151.33333L896.9625 151.33333L896.9625 142.36458Q896.4469 142.84895 895.6188 143.33333Q894.8063 143.8177 894.15 144.0677L894.15 142.70833Q895.3219 142.14583 896.1969 141.36458Q897.0875 140.5677 897.4625 139.83333L898.3688 139.83333L898.3688 151.33333ZM902.8219 151.33333L902.8219 149.72395L904.4313 149.72395L904.4313 151.33333Q904.4313 152.22395 904.1188 152.7552Q903.8063 153.30208 903.1188 153.59895L902.72815 153.0052Q903.1813 152.80208 903.3844 152.42708Q903.60315 152.05208 903.6188 151.33333L902.8219 151.33333ZM906.0719 148.33333L907.54065 148.20833Q907.7125 149.28645 908.3063 149.83333Q908.9 150.36458 909.7438 150.36458Q910.7594 150.36458 911.4625 149.59895Q912.16565 148.83333 912.16565 147.5677Q912.16565 146.36458 911.4938 145.67708Q910.8219 144.97395 909.72815 144.97395Q909.04065 144.97395 908.4938 145.28645Q907.9469 145.59895 907.6344 146.08333L906.3219 145.91145L907.4313 140.03645L913.1188 140.03645L913.1188 141.3802L908.5563 141.3802L907.9313 144.45833Q908.9625 143.73958 910.10315 143.73958Q911.60315 143.73958 912.6344 144.78645Q913.66565 145.8177 913.66565 147.4427Q913.66565 149.0052 912.7594 150.1302Q911.65 151.53645 909.7438 151.53645Q908.1813 151.53645 907.1969 150.66145Q906.2125 149.77083 906.0719 148.33333ZM915.3375 142.6302Q915.3375 141.39583 915.9469 140.53645Q916.5719 139.67708 917.7438 139.67708Q918.8219 139.67708 919.525 140.45833Q920.22815 141.22395 920.22815 142.70833Q920.22815 144.16145 919.5094 144.95833Q918.8063 145.73958 917.7594 145.73958Q916.7125 145.73958 916.025 144.97395Q915.3375 144.1927 915.3375 142.6302ZM917.775 140.64583Q917.2594 140.64583 916.9 141.09895Q916.5563 141.55208 916.5563 142.77083Q916.5563 143.86458 916.9 144.3177Q917.2594 144.77083 917.775 144.77083Q918.3063 144.77083 918.65 144.3177Q919.0094 143.86458 919.0094 142.66145Q919.0094 141.55208 918.65 141.09895Q918.3063 140.64583 917.775 140.64583ZM917.79065 151.7552L924.0563 139.67708L925.1969 139.67708L918.9469 151.7552L917.79065 151.7552ZM922.7438 148.64583Q922.7438 147.41145 923.35315 146.55208Q923.97815 145.6927 925.15 145.6927Q926.22815 145.6927 926.9313 146.47395Q927.65 147.23958 927.65 148.72395Q927.65 150.17708 926.9313 150.97395Q926.2125 151.7552 925.16565 151.7552Q924.1188 151.7552 923.4313 150.97395Q922.7438 150.1927 922.7438 148.64583ZM925.1969 146.66145Q924.66565 146.66145 924.3063 147.11458Q923.9625 147.5677 923.9625 148.78645Q923.9625 149.8802 924.3063 150.33333Q924.66565 150.78645 925.1813 150.78645Q925.72815 150.78645 926.0719 150.33333Q926.41565 149.8802 926.41565 148.67708Q926.41565 147.5677 926.0563 147.11458Q925.7125 146.66145 925.1969 146.66145Z" fill-rule="nonzero"/><path stroke="#757575" stroke-width="1.0" stroke-linecap="butt" d="M928.4 134.83333L729.5333 134.83333L606.6546 123.777275" fill-rule="nonzero"/><path fill="#9e9e9e" d="M608.6546 123.777275C608.6546 122.67271 607.75916 121.777275 606.6546 121.777275C605.55005 121.777275 604.6546 122.67271 604.6546 123.777275C604.6546 124.88185 605.55005 125.777275 606.6546 125.777275C607.75916 125.777275 608.6546 124.88185 608.6546 123.777275" fill-rule="nonzero"/><path fill="#1a1a1a" d="M855.1813 254.99371Q855.1813 252.13434 856.7125 250.52496Q858.2438 248.91559 860.66565 248.91559Q862.2438 248.91559 863.5094 249.68121Q864.79065 250.43121 865.4625 251.79059Q866.1344 253.13434 866.1344 254.85309Q866.1344 256.6031 865.4313 257.9781Q864.72815 259.3531 863.4313 260.07184Q862.15 260.77496 860.65 260.77496Q859.04065 260.77496 857.7594 259.9937Q856.4938 259.19684 855.8375 257.8531Q855.1813 256.4937 855.1813 254.99371ZM856.7438 255.00934Q856.7438 257.08746 857.85315 258.27496Q858.9625 259.46246 860.65 259.46246Q862.35315 259.46246 863.4625 258.25934Q864.5719 257.0562 864.5719 254.85309Q864.5719 253.44684 864.0875 252.41559Q863.6188 251.36871 862.7125 250.79059Q861.8063 250.21246 860.66565 250.21246Q859.0563 250.21246 857.9 251.32184Q856.7438 252.43121 856.7438 255.00934ZM875.8063 256.5562L877.3219 256.9312Q876.85315 258.8062 875.60315 259.7906Q874.3688 260.77496 872.5875 260.77496Q870.72815 260.77496 869.5719 260.02496Q868.41565 259.25934 867.8063 257.83746Q867.1969 256.39996 867.1969 254.75934Q867.1969 252.96246 867.8844 251.63434Q868.5719 250.30621 869.8219 249.61871Q871.0875 248.91559 872.60315 248.91559Q874.3219 248.91559 875.4938 249.79059Q876.66565 250.66559 877.1344 252.25934L875.6344 252.60309Q875.2438 251.35309 874.47815 250.79059Q873.72815 250.21246 872.5719 250.21246Q871.2594 250.21246 870.3688 250.85309Q869.47815 251.47809 869.1188 252.55621Q868.7594 253.61871 868.7594 254.74371Q868.7594 256.21246 869.1813 257.3062Q869.6188 258.38434 870.5094 258.9312Q871.41565 259.46246 872.4625 259.46246Q873.72815 259.46246 874.60315 258.7281Q875.4938 257.9937 875.8063 256.5562ZM879.66565 260.57184L879.66565 249.11871L884.7438 249.11871Q886.275 249.11871 887.0719 249.43121Q887.8688 249.72809 888.3375 250.50934Q888.8219 251.29059 888.8219 252.24371Q888.8219 253.46246 888.025 254.30621Q887.2438 255.13434 885.5875 255.35309Q886.1969 255.64996 886.5094 255.93121Q887.16565 256.5406 887.7594 257.44684L889.7594 260.57184L887.85315 260.57184L886.3375 258.1812Q885.66565 257.14996 885.22815 256.6031Q884.8063 256.0562 884.4625 255.83746Q884.1344 255.61871 883.775 255.54059Q883.525 255.47809 882.9313 255.47809L881.1813 255.47809L881.1813 260.57184L879.66565 260.57184ZM881.1813 254.16559L884.4313 254.16559Q885.47815 254.16559 886.0563 253.96246Q886.65 253.74371 886.9469 253.27496Q887.2594 252.79059 887.2594 252.24371Q887.2594 251.43121 886.66565 250.91559Q886.0719 250.38434 884.8063 250.38434L881.1813 250.38434L881.1813 254.16559ZM889.91565 257.13434L889.91565 255.71246L894.22815 255.71246L894.22815 257.13434L889.91565 257.13434ZM898.91565 260.57184L894.47815 249.11871L896.1188 249.11871L899.0875 257.4312Q899.4469 258.4312 899.6969 259.3062Q899.9625 258.3687 900.3063 257.4312L903.4 249.11871L904.9469 249.11871L900.4625 260.57184L898.91565 260.57184ZM915.3219 259.33746Q916.3688 260.07184 917.2594 260.39996L916.8219 261.46246Q915.5875 261.02496 914.35315 260.0562Q913.0875 260.77496 911.54065 260.77496Q909.9938 260.77496 908.72815 260.02496Q907.4625 259.25934 906.775 257.89996Q906.0875 256.5406 906.0875 254.83746Q906.0875 253.14996 906.775 251.75934Q907.4625 250.36871 908.72815 249.64996Q910.0094 248.91559 911.5719 248.91559Q913.16565 248.91559 914.4313 249.66559Q915.7125 250.41559 916.3688 251.77496Q917.04065 253.13434 917.04065 254.83746Q917.04065 256.2437 916.60315 257.38434Q916.1813 258.50934 915.3219 259.33746ZM911.97815 257.39996Q913.29065 257.77496 914.15 258.4937Q915.47815 257.27496 915.47815 254.83746Q915.47815 253.44684 915.0094 252.41559Q914.54065 251.36871 913.6188 250.79059Q912.7125 250.21246 911.5875 250.21246Q909.8844 250.21246 908.7594 251.38434Q907.65 252.54059 907.65 254.83746Q907.65 257.07184 908.7594 258.27496Q909.8688 259.46246 911.5875 259.46246Q912.4 259.46246 913.1188 259.1656Q912.4 258.69684 911.6188 258.50934L911.97815 257.39996ZM917.3688 260.57184L921.775 249.11871L923.41565 249.11871L928.10315 260.57184L926.3688 260.57184L925.04065 257.1031L920.2438 257.1031L918.9938 260.57184L917.3688 260.57184ZM920.6813 255.86871L924.5719 255.86871L923.3688 252.69684Q922.8219 251.24371 922.5563 250.32184Q922.3375 251.41559 921.9469 252.50934L920.6813 255.86871Z" fill-rule="nonzero"/><path fill="#9e9e9e" d="M889.3688 282.57184L887.9625 282.57184L887.9625 273.6031Q887.4469 274.08746 886.6188 274.57184Q885.8063 275.0562 885.15 275.3062L885.15 273.94684Q886.3219 273.38434 887.1969 272.6031Q888.0875 271.8062 888.4625 271.07184L889.3688 271.07184L889.3688 282.57184ZM900.4625 281.21246L900.4625 282.57184L892.8844 282.57184Q892.8688 282.0562 893.0563 281.58746Q893.3375 280.82184 893.97815 280.07184Q894.6188 279.32184 895.8219 278.33746Q897.6813 276.8062 898.3375 275.9156Q898.9938 275.00934 898.9938 274.21246Q898.9938 273.38434 898.4 272.8062Q897.8063 272.2281 896.8375 272.2281Q895.8219 272.2281 895.2125 272.83746Q894.60315 273.44684 894.60315 274.52496L893.15 274.38434Q893.3063 272.75934 894.275 271.9156Q895.2438 271.07184 896.8688 271.07184Q898.525 271.07184 899.47815 271.9937Q900.4469 272.89996 900.4469 274.2437Q900.4469 274.9312 900.16565 275.6031Q899.8844 276.25934 899.22815 276.9937Q898.5719 277.7281 897.0563 279.00934Q895.79065 280.07184 895.4313 280.46246Q895.0719 280.83746 894.8375 281.21246L900.4625 281.21246ZM902.8219 282.57184L902.8219 280.96246L904.4313 280.96246L904.4313 282.57184Q904.4313 283.46246 904.1188 283.9937Q903.8063 284.5406 903.1188 284.83746L902.72815 284.2437Q903.1813 284.0406 903.3844 283.6656Q903.60315 283.2906 903.6188 282.57184L902.8219 282.57184ZM908.22815 276.3531Q907.35315 276.0406 906.9313 275.44684Q906.5094 274.8531 906.5094 274.02496Q906.5094 272.77496 907.4 271.9312Q908.3063 271.07184 909.8063 271.07184Q911.3063 271.07184 912.2125 271.94684Q913.1344 272.8062 913.1344 274.0562Q913.1344 274.8531 912.7125 275.44684Q912.29065 276.0406 911.4469 276.3531Q912.4938 276.69684 913.04065 277.46246Q913.60315 278.2281 913.60315 279.2906Q913.60315 280.75934 912.5563 281.77496Q911.525 282.77496 909.8219 282.77496Q908.1344 282.77496 907.0875 281.77496Q906.0563 280.75934 906.0563 279.25934Q906.0563 278.13434 906.6188 277.38434Q907.1813 276.63434 908.22815 276.3531ZM907.9469 273.9781Q907.9469 274.7906 908.4625 275.3062Q908.9938 275.82184 909.8375 275.82184Q910.65 275.82184 911.16565 275.3062Q911.6813 274.7906 911.6813 274.0562Q911.6813 273.27496 911.15 272.75934Q910.6188 272.2281 909.8219 272.2281Q909.0094 272.2281 908.47815 272.7437Q907.9469 273.25934 907.9469 273.9781ZM907.4938 279.25934Q907.4938 279.8687 907.775 280.4312Q908.0719 280.9937 908.6344 281.3062Q909.1969 281.6031 909.8375 281.6031Q910.85315 281.6031 911.5094 280.96246Q912.16565 280.3062 912.16565 279.3062Q912.16565 278.2906 911.47815 277.63434Q910.8063 276.96246 909.79065 276.96246Q908.8063 276.96246 908.15 277.6187Q907.4938 278.27496 907.4938 279.25934ZM915.3375 273.8687Q915.3375 272.63434 915.9469 271.77496Q916.5719 270.9156 917.7438 270.9156Q918.8219 270.9156 919.525 271.69684Q920.22815 272.46246 920.22815 273.94684Q920.22815 275.39996 919.5094 276.19684Q918.8063 276.9781 917.7594 276.9781Q916.7125 276.9781 916.025 276.21246Q915.3375 275.4312 915.3375 273.8687ZM917.775 271.88434Q917.2594 271.88434 916.9 272.33746Q916.5563 272.7906 916.5563 274.00934Q916.5563 275.1031 916.9 275.5562Q917.2594 276.00934 917.775 276.00934Q918.3063 276.00934 918.65 275.5562Q919.0094 275.1031 919.0094 273.89996Q919.0094 272.7906 918.65 272.33746Q918.3063 271.88434 917.775 271.88434ZM917.79065 282.9937L924.0563 270.9156L925.1969 270.9156L918.9469 282.9937L917.79065 282.9937ZM922.7438 279.88434Q922.7438 278.64996 923.35315 277.7906Q923.97815 276.9312 925.15 276.9312Q926.22815 276.9312 926.9313 277.71246Q927.65 278.4781 927.65 279.96246Q927.65 281.4156 926.9313 282.21246Q926.2125 282.9937 925.16565 282.9937Q924.1188 282.9937 923.4313 282.21246Q922.7438 281.4312 922.7438 279.88434ZM925.1969 277.89996Q924.66565 277.89996 924.3063 278.3531Q923.9625 278.8062 923.9625 280.02496Q923.9625 281.1187 924.3063 281.57184Q924.66565 282.02496 925.1813 282.02496Q925.72815 282.02496 926.0719 281.57184Q926.41565 281.1187 926.41565 279.9156Q926.41565 278.8062 926.0563 278.3531Q925.7125 277.89996 925.1969 277.89996Z" fill-rule="nonzero"/><path stroke="#757575" stroke-width="1.0" stroke-linecap="butt" d="M928.4 266.07184L729.5333 266.07184L705.459 266.07184" fill-rule="nonzero"/><path fill="#9e9e9e" d="M707.459 266.07184C707.459 264.96725 706.5636 264.07184 705.459 264.07184C704.35443 264.07184 703.459 264.96725 703.459 266.07184C703.459 267.1764 704.35443 268.07184 705.459 268.07184C706.5636 268.07184 707.459 267.1764 707.459 266.07184" fill-rule="nonzero"/><path fill="#1a1a1a" d="M825.91565 445.76187L821.47815 434.30875L823.1188 434.30875L826.0875 442.62125Q826.4469 443.62125 826.6969 444.49625Q826.9625 443.55875 827.3063 442.62125L830.4 434.30875L831.9469 434.30875L827.4625 445.76187L825.91565 445.76187ZM833.4625 435.91812L833.4625 434.30875L834.8688 434.30875L834.8688 435.91812L833.4625 435.91812ZM833.4625 445.76187L833.4625 437.465L834.8688 437.465L834.8688 445.76187L833.4625 445.76187ZM836.9 443.2775L838.29065 443.05875Q838.4 443.9025 838.9313 444.35562Q839.47815 444.79312 840.4313 444.79312Q841.4 444.79312 841.8688 444.4025Q842.3375 443.99625 842.3375 443.465Q842.3375 442.99625 841.9313 442.715Q841.6344 442.5275 840.4938 442.24625Q838.9469 441.85562 838.3375 441.57437Q837.7438 441.2775 837.4313 440.7775Q837.1344 440.2775 837.1344 439.66812Q837.1344 439.10562 837.3844 438.63687Q837.6344 438.16812 838.0719 437.85562Q838.4 437.60562 838.9625 437.44937Q839.54065 437.2775 840.1813 437.2775Q841.16565 437.2775 841.9 437.55875Q842.6344 437.84 842.97815 438.32437Q843.3375 438.79312 843.47815 439.60562L842.10315 439.79312Q842.0094 439.1525 841.5563 438.79312Q841.10315 438.43375 840.29065 438.43375Q839.3219 438.43375 838.9 438.76187Q838.4938 439.07437 838.4938 439.49625Q838.4938 439.7775 838.66565 439.99625Q838.8375 440.215 839.1969 440.37125Q839.41565 440.44937 840.4469 440.73062Q841.9313 441.12125 842.525 441.38687Q843.1188 441.63687 843.4469 442.12125Q843.79065 442.60562 843.79065 443.32437Q843.79065 444.0275 843.3688 444.6525Q842.9625 445.26187 842.1813 445.60562Q841.41565 445.94937 840.4469 445.94937Q838.8219 445.94937 837.97815 445.2775Q837.1344 444.60562 836.9 443.2775ZM850.9 445.76187L850.9 444.54312Q849.9313 445.94937 848.2594 445.94937Q847.525 445.94937 846.8844 445.66812Q846.2594 445.38687 845.9469 444.965Q845.6344 444.5275 845.5094 443.91812Q845.4313 443.49625 845.4313 442.60562L845.4313 437.465L846.8375 437.465L846.8375 442.05875Q846.8375 443.16812 846.91565 443.54312Q847.0563 444.10562 847.47815 444.41812Q847.91565 444.73062 848.54065 444.73062Q849.1813 444.73062 849.72815 444.41812Q850.29065 444.09 850.5094 443.5275Q850.7438 442.965 850.7438 441.9025L850.7438 437.465L852.15 437.465L852.15 445.76187L850.9 445.76187ZM858.8688 444.73062Q858.0875 445.4025 857.3688 445.68375Q856.65 445.94937 855.8219 445.94937Q854.4469 445.94937 853.7125 445.2775Q852.97815 444.60562 852.97815 443.57437Q852.97815 442.965 853.2594 442.465Q853.54065 441.94937 853.97815 441.6525Q854.4313 441.34 854.9938 441.18375Q855.41565 441.07437 856.2438 440.98062Q857.9469 440.7775 858.7594 440.49625Q858.7594 440.19937 858.7594 440.12125Q858.7594 439.26187 858.3688 438.91812Q857.8219 438.43375 856.7594 438.43375Q855.775 438.43375 855.29065 438.79312Q854.8219 439.13687 854.60315 440.01187L853.22815 439.82437Q853.41565 438.94937 853.8375 438.4025Q854.275 437.85562 855.0875 437.57437Q855.9 437.2775 856.9625 437.2775Q858.025 437.2775 858.6813 437.5275Q859.35315 437.7775 859.66565 438.1525Q859.97815 438.5275 860.10315 439.10562Q860.1813 439.465 860.1813 440.4025L860.1813 442.2775Q860.1813 444.24625 860.2594 444.76187Q860.35315 445.2775 860.6188 445.76187L859.15 445.76187Q858.9313 445.32437 858.8688 444.73062ZM858.7594 441.59Q857.9938 441.9025 856.4625 442.12125Q855.5875 442.24625 855.22815 442.4025Q854.8688 442.55875 854.66565 442.87125Q854.47815 443.16812 854.47815 443.5275Q854.47815 444.09 854.9 444.465Q855.3375 444.84 856.15 444.84Q856.9625 444.84 857.5875 444.49625Q858.22815 444.13687 858.525 443.51187Q858.7594 443.04312 858.7594 442.10562L858.7594 441.59ZM862.4313 445.76187L862.4313 434.30875L863.8375 434.30875L863.8375 445.76187L862.4313 445.76187ZM874.9938 441.26187L874.9938 439.91812L879.85315 439.91812L879.85315 444.16812Q878.72815 445.05875 877.54065 445.51187Q876.35315 445.965 875.10315 445.965Q873.41565 445.965 872.04065 445.24625Q870.66565 444.51187 869.9625 443.1525Q869.2594 441.7775 869.2594 440.09Q869.2594 438.41812 869.9469 436.965Q870.65 435.51187 871.9625 434.80875Q873.275 434.10562 874.9938 434.10562Q876.22815 434.10562 877.22815 434.51187Q878.2438 434.91812 878.8063 435.63687Q879.3844 436.35562 879.6813 437.51187L878.3063 437.88687Q878.0563 437.01187 877.66565 436.51187Q877.29065 436.01187 876.5719 435.715Q875.8688 435.4025 874.9938 435.4025Q873.9625 435.4025 873.1969 435.73062Q872.4469 436.04312 871.97815 436.55875Q871.5094 437.07437 871.2594 437.68375Q870.8219 438.74625 870.8219 439.99625Q870.8219 441.5275 871.3375 442.55875Q871.8688 443.59 872.8688 444.09Q873.8844 444.59 875.025 444.59Q876.0094 444.59 876.9469 444.215Q877.8844 443.82437 878.3688 443.4025L878.3688 441.26187L874.9938 441.26187ZM887.1344 443.09L888.5875 443.26187Q888.2438 444.54312 887.3063 445.24625Q886.3844 445.94937 884.9469 445.94937Q883.1188 445.94937 882.0563 444.82437Q880.9938 443.69937 880.9938 441.68375Q880.9938 439.59 882.0719 438.43375Q883.15 437.2775 884.8688 437.2775Q886.525 437.2775 887.5719 438.41812Q888.6344 439.54312 888.6344 441.59Q888.6344 441.715 888.6344 441.965L882.4469 441.965Q882.525 443.34 883.2125 444.07437Q883.91565 444.79312 884.9469 444.79312Q885.72815 444.79312 886.275 444.38687Q886.8219 443.98062 887.1344 443.09ZM882.525 440.80875L887.15 440.80875Q887.0563 439.76187 886.6188 439.24625Q885.9469 438.43375 884.8844 438.43375Q883.91565 438.43375 883.2438 439.09Q882.5875 439.73062 882.525 440.80875ZM890.4625 445.76187L890.4625 437.465L891.72815 437.465L891.72815 438.63687Q892.6344 437.2775 894.3688 437.2775Q895.1188 437.2775 895.7438 437.54312Q896.3688 437.80875 896.6813 438.24625Q896.9938 438.68375 897.1188 439.29312Q897.1969 439.68375 897.1969 440.6525L897.1969 445.76187L895.79065 445.76187L895.79065 440.715Q895.79065 439.85562 895.6188 439.43375Q895.4625 438.99625 895.04065 438.74625Q894.6344 438.49625 894.0719 438.49625Q893.16565 438.49625 892.5094 439.07437Q891.8688 439.63687 891.8688 441.23062L891.8688 445.76187L890.4625 445.76187ZM897.9313 441.60562Q897.9313 439.30875 899.2125 438.19937Q900.29065 437.2775 901.8219 437.2775Q903.54065 437.2775 904.6188 438.4025Q905.7125 439.51187 905.7125 441.49625Q905.7125 443.09 905.22815 444.01187Q904.7438 444.93375 903.8219 445.44937Q902.91565 445.94937 901.8219 445.94937Q900.0875 445.94937 899.0094 444.84Q897.9313 443.715 897.9313 441.60562ZM899.3844 441.60562Q899.3844 443.19937 900.0719 443.99625Q900.775 444.79312 901.8219 444.79312Q902.8688 444.79312 903.5563 443.99625Q904.2594 443.19937 904.2594 441.55875Q904.2594 440.0275 903.5563 439.23062Q902.8688 438.43375 901.8219 438.43375Q900.775 438.43375 900.0719 439.23062Q899.3844 440.01187 899.3844 441.60562ZM907.4625 445.76187L907.4625 437.465L908.7125 437.465L908.7125 438.62125Q909.10315 438.01187 909.7438 437.6525Q910.4 437.2775 911.22815 437.2775Q912.15 437.2775 912.7438 437.66812Q913.3375 438.04312 913.5719 438.73062Q914.5563 437.2775 916.1344 437.2775Q917.3688 437.2775 918.025 437.965Q918.6969 438.63687 918.6969 440.05875L918.6969 445.76187L917.3063 445.76187L917.3063 440.5275Q917.3063 439.68375 917.16565 439.32437Q917.025 438.94937 916.66565 438.73062Q916.3063 438.49625 915.8219 438.49625Q914.9469 438.49625 914.3688 439.07437Q913.79065 439.6525 913.79065 440.93375L913.79065 445.76187L912.3844 445.76187L912.3844 440.37125Q912.3844 439.43375 912.04065 438.965Q911.6969 438.49625 910.91565 438.49625Q910.3219 438.49625 909.8219 438.80875Q909.3219 439.12125 909.0875 439.73062Q908.8688 440.32437 908.8688 441.44937L908.8688 445.76187L907.4625 445.76187ZM926.1344 443.09L927.5875 443.26187Q927.2438 444.54312 926.3063 445.24625Q925.3844 445.94937 923.9469 445.94937Q922.1188 445.94937 921.0563 444.82437Q919.9938 443.69937 919.9938 441.68375Q919.9938 439.59 921.0719 438.43375Q922.15 437.2775 923.8688 437.2775Q925.525 437.2775 926.5719 438.41812Q927.6344 439.54312 927.6344 441.59Q927.6344 441.715 927.6344 441.965L921.4469 441.965Q921.525 443.34 922.2125 444.07437Q922.91565 444.79312 923.9469 444.79312Q924.72815 444.79312 925.275 444.38687Q925.8219 443.98062 926.1344 443.09ZM921.525 440.80875L926.15 440.80875Q926.0563 439.76187 925.6188 439.24625Q924.9469 438.43375 923.8844 438.43375Q922.91565 438.43375 922.2438 439.09Q921.5875 439.73062 921.525 440.80875Z" fill-rule="nonzero"/><path fill="#9e9e9e" d="M889.3688 467.76187L887.9625 467.76187L887.9625 458.79312Q887.4469 459.2775 886.6188 459.76187Q885.8063 460.24625 885.15 460.49625L885.15 459.13687Q886.3219 458.57437 887.1969 457.79312Q888.0875 456.99625 888.4625 456.26187L889.3688 456.26187L889.3688 467.76187ZM893.0719 464.73062L894.47815 464.54312Q894.72815 465.74625 895.3063 466.2775Q895.8844 466.79312 896.72815 466.79312Q897.7125 466.79312 898.4 466.10562Q899.0875 465.41812 899.0875 464.4025Q899.0875 463.43375 898.4469 462.80875Q897.8219 462.18375 896.8375 462.18375Q896.4469 462.18375 895.85315 462.34L896.0094 461.10562Q896.15 461.12125 896.22815 461.12125Q897.1344 461.12125 897.85315 460.6525Q898.5719 460.18375 898.5719 459.19937Q898.5719 458.43375 898.04065 457.93375Q897.525 457.41812 896.6969 457.41812Q895.8688 457.41812 895.3219 457.93375Q894.775 458.44937 894.6188 459.48062L893.2125 459.23062Q893.47815 457.80875 894.3844 457.04312Q895.3063 456.26187 896.66565 456.26187Q897.60315 456.26187 898.3844 456.66812Q899.1813 457.05875 899.5875 457.76187Q900.0094 458.44937 900.0094 459.23062Q900.0094 459.98062 899.60315 460.59Q899.2125 461.19937 898.4313 461.55875Q899.4469 461.79312 900.0094 462.5275Q900.5719 463.26187 900.5719 464.37125Q900.5719 465.87125 899.47815 466.91812Q898.3844 467.965 896.7125 467.965Q895.2125 467.965 894.2125 467.07437Q893.2125 466.16812 893.0719 464.73062ZM902.8219 467.76187L902.8219 466.1525L904.4313 466.1525L904.4313 467.76187Q904.4313 468.6525 904.1188 469.18375Q903.8063 469.73062 903.1188 470.0275L902.72815 469.43375Q903.1813 469.23062 903.3844 468.85562Q903.60315 468.48062 903.6188 467.76187L902.8219 467.76187ZM908.22815 461.54312Q907.35315 461.23062 906.9313 460.63687Q906.5094 460.04312 906.5094 459.215Q906.5094 457.965 907.4 457.12125Q908.3063 456.26187 909.8063 456.26187Q911.3063 456.26187 912.2125 457.13687Q913.1344 457.99625 913.1344 459.24625Q913.1344 460.04312 912.7125 460.63687Q912.29065 461.23062 911.4469 461.54312Q912.4938 461.88687 913.04065 462.6525Q913.60315 463.41812 913.60315 464.48062Q913.60315 465.94937 912.5563 466.965Q911.525 467.965 909.8219 467.965Q908.1344 467.965 907.0875 466.965Q906.0563 465.94937 906.0563 464.44937Q906.0563 463.32437 906.6188 462.57437Q907.1813 461.82437 908.22815 461.54312ZM907.9469 459.16812Q907.9469 459.98062 908.4625 460.49625Q908.9938 461.01187 909.8375 461.01187Q910.65 461.01187 911.16565 460.49625Q911.6813 459.98062 911.6813 459.24625Q911.6813 458.465 911.15 457.94937Q910.6188 457.41812 909.8219 457.41812Q909.0094 457.41812 908.47815 457.93375Q907.9469 458.44937 907.9469 459.16812ZM907.4938 464.44937Q907.4938 465.05875 907.775 465.62125Q908.0719 466.18375 908.6344 466.49625Q909.1969 466.79312 909.8375 466.79312Q910.85315 466.79312 911.5094 466.1525Q912.16565 465.49625 912.16565 464.49625Q912.16565 463.48062 911.47815 462.82437Q910.8063 462.1525 909.79065 462.1525Q908.8063 462.1525 908.15 462.80875Q907.4938 463.465 907.4938 464.44937ZM915.3375 459.05875Q915.3375 457.82437 915.9469 456.965Q916.5719 456.10562 917.7438 456.10562Q918.8219 456.10562 919.525 456.88687Q920.22815 457.6525 920.22815 459.13687Q920.22815 460.59 919.5094 461.38687Q918.8063 462.16812 917.7594 462.16812Q916.7125 462.16812 916.025 461.4025Q915.3375 460.62125 915.3375 459.05875ZM917.775 457.07437Q917.2594 457.07437 916.9 457.5275Q916.5563 457.98062 916.5563 459.19937Q916.5563 460.29312 916.9 460.74625Q917.2594 461.19937 917.775 461.19937Q918.3063 461.19937 918.65 460.74625Q919.0094 460.29312 919.0094 459.09Q919.0094 457.98062 918.65 457.5275Q918.3063 457.07437 917.775 457.07437ZM917.79065 468.18375L924.0563 456.10562L925.1969 456.10562L918.9469 468.18375L917.79065 468.18375ZM922.7438 465.07437Q922.7438 463.84 923.35315 462.98062Q923.97815 462.12125 925.15 462.12125Q926.22815 462.12125 926.9313 462.9025Q927.65 463.66812 927.65 465.1525Q927.65 466.60562 926.9313 467.4025Q926.2125 468.18375 925.16565 468.18375Q924.1188 468.18375 923.4313 467.4025Q922.7438 466.62125 922.7438 465.07437ZM925.1969 463.09Q924.66565 463.09 924.3063 463.54312Q923.9625 463.99625 923.9625 465.215Q923.9625 466.30875 924.3063 466.76187Q924.66565 467.215 925.1813 467.215Q925.72815 467.215 926.0719 466.76187Q926.41565 466.30875 926.41565 465.10562Q926.41565 463.99625 926.0563 463.54312Q925.7125 463.09 925.1969 463.09Z" fill-rule="nonzero"/><path stroke="#757575" stroke-width="1.0" stroke-linecap="butt" d="M928.4 451.26187L729.5333 451.26187L669.18964 451.26187" fill-rule="nonzero"/><path fill="#9e9e9e" d="M671.18964 451.26187C671.18964 450.1573 670.29425 449.26187 669.18964 449.26187C668.0851 449.26187 667.18964 450.1573 667.18964 451.26187C667.18964 452.36642 668.0851 453.26187 669.18964 453.26187C670.29425 453.26187 671.18964 452.36642 671.18964 451.26187" fill-rule="nonzero"/><path fill="#757575" d="M31.459375 48.6L31.459375 34.2875L33.365623 34.2875L33.365623 48.6L31.459375 48.6ZM36.9125 48.6L36.9125 38.225L38.50625 38.225L38.50625 39.709373Q39.646873 37.990623 41.803123 37.990623Q42.740623 37.990623 43.521873 38.334373Q44.31875 38.6625 44.709373 39.209373Q45.1 39.75625 45.25625 40.50625Q45.35 41.00625 45.35 42.225L45.35 48.6L43.584373 48.6L43.584373 42.2875Q43.584373 41.209373 43.38125 40.678123Q43.178123 40.146873 42.646873 39.834373Q42.13125 39.521873 41.428123 39.521873Q40.303123 39.521873 39.490623 40.240623Q38.678123 40.94375 38.678123 42.928123L38.678123 48.6L36.9125 48.6ZM46.209373 45.50625L47.959373 45.225Q48.1 46.271873 48.771873 46.834373Q49.44375 47.38125 50.646873 47.38125Q51.85 47.38125 52.428123 46.896873Q53.021873 46.396873 53.021873 45.740623Q53.021873 45.146873 52.50625 44.803123Q52.146873 44.56875 50.709373 44.209373Q48.771873 43.709373 48.021873 43.365623Q47.2875 43.00625 46.896873 42.38125Q46.50625 41.740623 46.50625 40.975Q46.50625 40.2875 46.81875 39.69375Q47.146873 39.1 47.69375 38.709373Q48.1 38.4125 48.803123 38.209373Q49.521873 37.990623 50.334373 37.990623Q51.553123 37.990623 52.475 38.35Q53.396873 38.69375 53.834373 39.303123Q54.271873 39.896873 54.44375 40.896873L52.725 41.13125Q52.6 40.334373 52.0375 39.896873Q51.475 39.44375 50.459373 39.44375Q49.240623 39.44375 48.725 39.85Q48.209373 40.240623 48.209373 40.771873Q48.209373 41.115623 48.428123 41.396873Q48.63125 41.678123 49.1 41.865623Q49.365623 41.959373 50.646873 42.303123Q52.521873 42.803123 53.25625 43.13125Q53.990623 43.44375 54.4125 44.053123Q54.834373 44.646873 54.834373 45.553123Q54.834373 46.428123 54.31875 47.209373Q53.803123 47.990623 52.834373 48.4125Q51.865623 48.834373 50.646873 48.834373Q48.63125 48.834373 47.56875 47.990623Q46.50625 47.146873 46.209373 45.50625ZM60.75625 47.021873L61.00625 48.584373Q60.271873 48.740623 59.678123 48.740623Q58.725 48.740623 58.19375 48.44375Q57.678123 48.13125 57.459373 47.646873Q57.240623 47.146873 57.240623 45.56875L57.240623 39.6L55.959373 39.6L55.959373 38.225L57.240623 38.225L57.240623 35.6625L58.990623 34.6L58.990623 38.225L60.75625 38.225L60.75625 39.6L58.990623 39.6L58.990623 45.6625Q58.990623 46.4125 59.084373 46.63125Q59.178123 46.834373 59.38125 46.975Q59.6 47.1 59.990623 47.1Q60.271873 47.1 60.75625 47.021873ZM62.896873 48.6L62.896873 38.225L64.475 38.225L64.475 39.803123Q65.08437 38.69375 65.6 38.35Q66.11562 37.990623 66.725 37.990623Q67.61562 37.990623 68.5375 38.553123L67.92812 40.19375Q67.2875 39.803123 66.64687 39.803123Q66.06875 39.803123 65.6 40.1625Q65.14687 40.50625 64.94375 41.115623Q64.6625 42.053123 64.6625 43.1625L64.6625 48.6L62.896873 48.6ZM76.70937 48.6L76.70937 47.06875Q75.50625 48.834373 73.42812 48.834373Q72.50625 48.834373 71.70937 48.490623Q70.9125 48.13125 70.52187 47.6Q70.14687 47.06875 69.99062 46.2875Q69.88125 45.771873 69.88125 44.646873L69.88125 38.225L71.63125 38.225L71.63125 43.975Q71.63125 45.35 71.74062 45.834373Q71.9125 46.521873 72.44375 46.928123Q72.99062 47.31875 73.77187 47.31875Q74.56875 47.31875 75.25625 46.9125Q75.95937 46.50625 76.24062 45.81875Q76.5375 45.115623 76.5375 43.7875L76.5375 38.225L78.2875 38.225L78.2875 48.6L76.70937 48.6ZM86.69375 44.803123L88.4125 45.021873Q88.13125 46.81875 86.95937 47.834373Q85.80312 48.834373 84.1 48.834373Q81.975 48.834373 80.67812 47.44375Q79.38125 46.053123 79.38125 43.459373Q79.38125 41.771873 79.92812 40.521873Q80.49062 39.25625 81.63125 38.63125Q82.77187 37.990623 84.11562 37.990623Q85.80312 37.990623 86.86562 38.85Q87.94375 39.709373 88.25625 41.271873L86.5375 41.5375Q86.30312 40.490623 85.67812 39.975Q85.05312 39.44375 84.17812 39.44375Q82.85 39.44375 82.02187 40.396873Q81.19375 41.35 81.19375 43.396873Q81.19375 45.490623 81.99062 46.44375Q82.7875 47.38125 84.08437 47.38125Q85.11562 47.38125 85.80312 46.75625Q86.50625 46.115623 86.69375 44.803123ZM93.75625 47.021873L94.00625 48.584373Q93.27187 48.740623 92.67812 48.740623Q91.725 48.740623 91.19375 48.44375Q90.67812 48.13125 90.45937 47.646873Q90.24062 47.146873 90.24062 45.56875L90.24062 39.6L88.95937 39.6L88.95937 38.225L90.24062 38.225L90.24062 35.6625L91.99062 34.6L91.99062 38.225L93.75625 38.225L93.75625 39.6L91.99062 39.6L91.99062 45.6625Q91.99062 46.4125 92.08437 46.63125Q92.17812 46.834373 92.38125 46.975Q92.6 47.1 92.99062 47.1Q93.27187 47.1 93.75625 47.021873ZM95.92812 36.303123L95.92812 34.2875L97.69375 34.2875L97.69375 36.303123L95.92812 36.303123ZM95.92812 48.6L95.92812 38.225L97.69375 38.225L97.69375 48.6L95.92812 48.6ZM102.80312 48.6L98.85 38.225L100.70937 38.225L102.94375 44.44375Q103.30312 45.44375 103.6 46.521873Q103.83437 45.709373 104.25625 44.553123L106.55312 38.225L108.36562 38.225L104.44375 48.6L102.80312 48.6ZM116.02187 45.25625L117.83437 45.490623Q117.4125 47.06875 116.24062 47.959373Q115.08437 48.834373 113.27187 48.834373Q111.00625 48.834373 109.6625 47.44375Q108.33437 46.0375 108.33437 43.50625Q108.33437 40.88125 109.67812 39.44375Q111.02187 37.990623 113.17812 37.990623Q115.25625 37.990623 116.56875 39.4125Q117.89687 40.81875 117.89687 43.396873Q117.89687 43.553123 117.88125 43.865623L110.14687 43.865623Q110.24062 45.56875 111.11562 46.475Q111.99062 47.38125 113.2875 47.38125Q114.25625 47.38125 114.92812 46.88125Q115.61562 46.365623 116.02187 45.25625ZM110.24062 42.4125L116.0375 42.4125Q115.92812 41.115623 115.38125 40.459373Q114.5375 39.44375 113.19375 39.44375Q111.99062 39.44375 111.1625 40.25625Q110.33437 41.053123 110.24062 42.4125ZM125.50625 44.00625L127.2875 43.85Q127.4125 44.9125 127.86562 45.6Q128.33438 46.2875 129.30313 46.725Q130.2875 47.146873 131.52188 47.146873Q132.6 47.146873 133.42813 46.834373Q134.25626 46.50625 134.6625 45.94375Q135.06876 45.38125 135.06876 44.709373Q135.06876 44.0375 134.67813 43.5375Q134.2875 43.0375 133.39688 42.69375Q132.81876 42.459373 130.83438 41.990623Q128.86563 41.521873 128.08438 41.1Q127.05312 40.56875 126.55312 39.771873Q126.05312 38.975 126.05312 37.990623Q126.05312 36.896873 126.6625 35.959373Q127.27187 35.021873 128.45938 34.5375Q129.64688 34.0375 131.08438 34.0375Q132.67813 34.0375 133.89688 34.553123Q135.11563 35.06875 135.75626 36.06875Q136.4125 37.053123 136.45938 38.31875L134.64688 38.459373Q134.50626 37.1 133.6625 36.4125Q132.81876 35.709373 131.1625 35.709373Q129.44376 35.709373 128.64688 36.35Q127.86562 36.975 127.86562 37.85Q127.86562 38.63125 128.42813 39.13125Q128.975 39.63125 131.2875 40.146873Q133.6 40.6625 134.45938 41.053123Q135.70938 41.63125 136.30313 42.521873Q136.89688 43.396873 136.89688 44.553123Q136.89688 45.69375 136.24063 46.709373Q135.58438 47.725 134.35 48.2875Q133.13126 48.85 131.6 48.85Q129.6625 48.85 128.35 48.2875Q127.0375 47.709373 126.2875 46.56875Q125.5375 45.428123 125.50625 44.00625ZM139.24063 48.6L139.24063 34.2875L148.89688 34.2875L148.89688 35.975L141.13126 35.975L141.13126 40.4125L147.85 40.4125L147.85 42.1L141.13126 42.1L141.13126 48.6L139.24063 48.6ZM154.7875 48.6L154.7875 35.975L150.06876 35.975L150.06876 34.2875L161.4125 34.2875L161.4125 35.975L156.67813 35.975L156.67813 48.6L154.7875 48.6ZM175.64688 48.6L175.64688 47.2875Q174.6625 48.834373 172.74063 48.834373Q171.50626 48.834373 170.45938 48.146873Q169.42813 47.459373 168.85 46.240623Q168.2875 45.021873 168.2875 43.428123Q168.2875 41.865623 168.80313 40.6Q169.31876 39.334373 170.35 38.6625Q171.39688 37.990623 172.6625 37.990623Q173.6 37.990623 174.33438 38.396873Q175.06876 38.7875 175.5375 39.4125L175.5375 34.2875L177.27188 34.2875L177.27188 48.6L175.64688 48.6ZM170.08438 43.428123Q170.08438 45.4125 170.92813 46.396873Q171.77188 47.38125 172.9125 47.38125Q174.06876 47.38125 174.86563 46.44375Q175.67813 45.50625 175.67813 43.56875Q175.67813 41.44375 174.85 40.44375Q174.0375 39.44375 172.83438 39.44375Q171.6625 39.44375 170.86563 40.4125Q170.08438 41.365623 170.08438 43.428123ZM186.69376 47.31875Q185.70938 48.146873 184.80313 48.490623Q183.89688 48.834373 182.86563 48.834373Q181.1625 48.834373 180.24063 48.00625Q179.31876 47.1625 179.31876 45.865623Q179.31876 45.1 179.6625 44.475Q180.02188 43.85 180.58438 43.475Q181.14688 43.084373 181.85 42.88125Q182.36563 42.75625 183.4125 42.615623Q185.5375 42.365623 186.5375 42.021873Q186.55313 41.6625 186.55313 41.553123Q186.55313 40.490623 186.05313 40.0375Q185.38126 39.44375 184.05313 39.44375Q182.80313 39.44375 182.20938 39.88125Q181.63126 40.31875 181.35 41.428123L179.63126 41.19375Q179.86563 40.084373 180.39688 39.4125Q180.92813 38.725 181.94376 38.365623Q182.95938 37.990623 184.30313 37.990623Q185.63126 37.990623 186.45938 38.303123Q187.2875 38.615623 187.67813 39.1Q188.06876 39.56875 188.225 40.2875Q188.31876 40.740623 188.31876 41.9125L188.31876 44.25625Q188.31876 46.709373 188.42813 47.365623Q188.5375 48.00625 188.88126 48.6L187.0375 48.6Q186.77188 48.053123 186.69376 47.31875ZM186.5375 43.396873Q185.58438 43.7875 183.6625 44.053123Q182.58438 44.209373 182.13126 44.4125Q181.69376 44.6 181.44376 44.975Q181.19376 45.35 181.19376 45.81875Q181.19376 46.521873 181.725 46.990623Q182.25626 47.459373 183.2875 47.459373Q184.30313 47.459373 185.08438 47.021873Q185.88126 46.56875 186.25626 45.803123Q186.5375 45.19375 186.5375 44.0375L186.5375 43.396873ZM194.75626 47.021873L195.00626 48.584373Q194.27188 48.740623 193.67813 48.740623Q192.725 48.740623 192.19376 48.44375Q191.67813 48.13125 191.45938 47.646873Q191.24063 47.146873 191.24063 45.56875L191.24063 39.6L189.95938 39.6L189.95938 38.225L191.24063 38.225L191.24063 35.6625L192.99063 34.6L192.99063 38.225L194.75626 38.225L194.75626 39.6L192.99063 39.6L192.99063 45.6625Q192.99063 46.4125 193.08438 46.63125Q193.17813 46.834373 193.38126 46.975Q193.6 47.1 193.99063 47.1Q194.27188 47.1 194.75626 47.021873ZM203.69376 47.31875Q202.70938 48.146873 201.80313 48.490623Q200.89688 48.834373 199.86563 48.834373Q198.1625 48.834373 197.24063 48.00625Q196.31876 47.1625 196.31876 45.865623Q196.31876 45.1 196.6625 44.475Q197.02188 43.85 197.58438 43.475Q198.14688 43.084373 198.85 42.88125Q199.36563 42.75625 200.4125 42.615623Q202.5375 42.365623 203.5375 42.021873Q203.55313 41.6625 203.55313 41.553123Q203.55313 40.490623 203.05313 40.0375Q202.38126 39.44375 201.05313 39.44375Q199.80313 39.44375 199.20938 39.88125Q198.63126 40.31875 198.35 41.428123L196.63126 41.19375Q196.86563 40.084373 197.39688 39.4125Q197.92813 38.725 198.94376 38.365623Q199.95938 37.990623 201.30313 37.990623Q202.63126 37.990623 203.45938 38.303123Q204.2875 38.615623 204.67813 39.1Q205.06876 39.56875 205.225 40.2875Q205.31876 40.740623 205.31876 41.9125L205.31876 44.25625Q205.31876 46.709373 205.42813 47.365623Q205.5375 48.00625 205.88126 48.6L204.0375 48.6Q203.77188 48.053123 203.69376 47.31875ZM203.5375 43.396873Q202.58438 43.7875 200.6625 44.053123Q199.58438 44.209373 199.13126 44.4125Q198.69376 44.6 198.44376 44.975Q198.19376 45.35 198.19376 45.81875Q198.19376 46.521873 198.725 46.990623Q199.25626 47.459373 200.2875 47.459373Q201.30313 47.459373 202.08438 47.021873Q202.88126 46.56875 203.25626 45.803123Q203.5375 45.19375 203.5375 44.0375L203.5375 43.396873ZM207.20938 45.50625L208.95938 45.225Q209.1 46.271873 209.77188 46.834373Q210.44376 47.38125 211.64688 47.38125Q212.85 47.38125 213.42813 46.896873Q214.02188 46.396873 214.02188 45.740623Q214.02188 45.146873 213.50626 44.803123Q213.14688 44.56875 211.70938 44.209373Q209.77188 43.709373 209.02188 43.365623Q208.2875 43.00625 207.89688 42.38125Q207.50626 41.740623 207.50626 40.975Q207.50626 40.2875 207.81876 39.69375Q208.14688 39.1 208.69376 38.709373Q209.1 38.4125 209.80313 38.209373Q210.52188 37.990623 211.33438 37.990623Q212.55313 37.990623 213.475 38.35Q214.39688 38.69375 214.83438 39.303123Q215.27188 39.896873 215.44376 40.896873L213.725 41.13125Q213.6 40.334373 213.0375 39.896873Q212.475 39.44375 211.45938 39.44375Q210.24063 39.44375 209.725 39.85Q209.20938 40.240623 209.20938 40.771873Q209.20938 41.115623 209.42813 41.396873Q209.63126 41.678123 210.1 41.865623Q210.36563 41.959373 211.64688 42.303123Q213.52188 42.803123 214.25626 43.13125Q214.99063 43.44375 215.4125 44.053123Q215.83438 44.646873 215.83438 45.553123Q215.83438 46.428123 215.31876 47.209373Q214.80313 47.990623 213.83438 48.4125Q212.86563 48.834373 211.64688 48.834373Q209.63126 48.834373 208.56876 47.990623Q207.50626 47.146873 207.20938 45.50625ZM225.02188 45.25625L226.83438 45.490623Q226.4125 47.06875 225.24063 47.959373Q224.08438 48.834373 222.27188 48.834373Q220.00626 48.834373 218.6625 47.44375Q217.33438 46.0375 217.33438 43.50625Q217.33438 40.88125 218.67813 39.44375Q220.02188 37.990623 222.17813 37.990623Q224.25626 37.990623 225.56876 39.4125Q226.89688 40.81875 226.89688 43.396873Q226.89688 43.553123 226.88126 43.865623L219.14688 43.865623Q219.24063 45.56875 220.11563 46.475Q220.99063 47.38125 222.2875 47.38125Q223.25626 47.38125 223.92813 46.88125Q224.61563 46.365623 225.02188 45.25625ZM219.24063 42.4125L225.0375 42.4125Q224.92813 41.115623 224.38126 40.459373Q223.5375 39.44375 222.19376 39.44375Q220.99063 39.44375 220.1625 40.25625Q219.33438 41.053123 219.24063 42.4125ZM232.75626 47.021873L233.00626 48.584373Q232.27188 48.740623 231.67813 48.740623Q230.725 48.740623 230.19376 48.44375Q229.67813 48.13125 229.45938 47.646873Q229.24063 47.146873 229.24063 45.56875L229.24063 39.6L227.95938 39.6L227.95938 38.225L229.24063 38.225L229.24063 35.6625L230.99063 34.6L230.99063 38.225L232.75626 38.225L232.75626 39.6L230.99063 39.6L230.99063 45.6625Q230.99063 46.4125 231.08438 46.63125Q231.17813 46.834373 231.38126 46.975Q231.6 47.1 231.99063 47.1Q232.27188 47.1 232.75626 47.021873ZM234.20938 45.50625L235.95938 45.225Q236.1 46.271873 236.77188 46.834373Q237.44376 47.38125 238.64688 47.38125Q239.85 47.38125 240.42813 46.896873Q241.02188 46.396873 241.02188 45.740623Q241.02188 45.146873 240.50626 44.803123Q240.14688 44.56875 238.70938 44.209373Q236.77188 43.709373 236.02188 43.365623Q235.2875 43.00625 234.89688 42.38125Q234.50626 41.740623 234.50626 40.975Q234.50626 40.2875 234.81876 39.69375Q235.14688 39.1 235.69376 38.709373Q236.1 38.4125 236.80313 38.209373Q237.52188 37.990623 238.33438 37.990623Q239.55313 37.990623 240.475 38.35Q241.39688 38.69375 241.83438 39.303123Q242.27188 39.896873 242.44376 40.896873L240.725 41.13125Q240.6 40.334373 240.0375 39.896873Q239.475 39.44375 238.45938 39.44375Q237.24063 39.44375 236.725 39.85Q236.20938 40.240623 236.20938 40.771873Q236.20938 41.115623 236.42813 41.396873Q236.63126 41.678123 237.1 41.865623Q237.36563 41.959373 238.64688 42.303123Q240.52188 42.803123 241.25626 43.13125Q241.99063 43.44375 242.4125 44.053123Q242.83438 44.646873 242.83438 45.553123Q242.83438 46.428123 242.31876 47.209373Q241.80313 47.990623 240.83438 48.4125Q239.86563 48.834373 238.64688 48.834373Q236.63126 48.834373 235.56876 47.990623Q234.50626 47.146873 234.20938 45.50625Z" fill-rule="nonzero"/></svg>