<?xml version="1.0" encoding="utf-8" standalone="no"?>
<!DOCTYPE svg PUBLIC "-//W3C//DTD SVG 1.1//EN"
  "http://www.w3.org/Graphics/SVG/1.1/DTD/svg11.dtd">
<svg xmlns:xlink="http://www.w3.org/1999/xlink" width="652.486781pt" height="517.546687pt" viewBox="0 0 652.486781 517.546687" xmlns="http://www.w3.org/2000/svg" version="1.1">
 <metadata>
  <rdf:RDF xmlns:dc="http://purl.org/dc/elements/1.1/" xmlns:cc="http://creativecommons.org/ns#" xmlns:rdf="http://www.w3.org/1999/02/22-rdf-syntax-ns#">
   <cc:Work>
    <dc:type rdf:resource="http://purl.org/dc/dcmitype/StillImage"/>
    <dc:date>2023-11-21T19:27:57.504623</dc:date>
    <dc:format>image/svg+xml</dc:format>
    <dc:creator>
     <cc:Agent>
      <dc:title>Matplotlib v3.8.0, https://matplotlib.org/</dc:title>
     </cc:Agent>
    </dc:creator>
   </cc:Work>
  </rdf:RDF>
 </metadata>
 <defs>
  <style type="text/css">*{stroke-linejoin: round; stroke-linecap: butt}</style>
 </defs>
 <g id="figure_1">
  <g id="patch_1">
   <path d="M 0 517.546687 
L 652.486781 517.546687 
L 652.486781 0 
L 0 0 
z
" style="fill: #ffffff"/>
  </g>
  <g id="axes_1">
   <g id="patch_2">
    <path d="M 517.730781 267.812 
C 517.730781 238.690744 511.994529 209.852655 500.850306 182.948122 
C 489.706084 156.043589 473.370619 131.595838 452.778781 111.004 
C 432.186943 90.412162 407.739192 74.076697 380.834659 62.932475 
C 353.930126 51.788253 325.092038 46.052 295.970781 46.052 
C 266.849525 46.052 238.011436 51.788253 211.106903 62.932475 
C 184.202371 74.076697 159.754619 90.412162 139.162781 111.004 
C 118.570944 131.595838 102.235478 156.043589 91.091256 182.948122 
C 79.947034 209.852655 74.210781 238.690744 74.210781 267.812 
C 74.210781 296.933256 79.947034 325.771345 91.091256 352.675878 
C 102.235478 379.580411 118.570944 404.028162 139.162781 424.62 
C 159.754619 445.211838 184.202371 461.547303 211.106903 472.691525 
C 238.011436 483.835747 266.849525 489.572 295.970781 489.572 
C 325.092038 489.572 353.930126 483.835747 380.834659 472.691525 
C 407.739192 461.547303 432.186943 445.211838 452.778781 424.62 
C 473.370619 404.028162 489.706084 379.580411 500.850306 352.675878 
C 511.994529 325.771345 517.730781 296.933256 517.730781 267.812 
M 295.970781 267.812 
C 295.970781 267.812 295.970781 267.812 295.970781 267.812 
C 295.970781 267.812 295.970781 267.812 295.970781 267.812 
C 295.970781 267.812 295.970781 267.812 295.970781 267.812 
C 295.970781 267.812 295.970781 267.812 295.970781 267.812 
C 295.970781 267.812 295.970781 267.812 295.970781 267.812 
C 295.970781 267.812 295.970781 267.812 295.970781 267.812 
C 295.970781 267.812 295.970781 267.812 295.970781 267.812 
C 295.970781 267.812 295.970781 267.812 295.970781 267.812 
C 295.970781 267.812 295.970781 267.812 295.970781 267.812 
C 295.970781 267.812 295.970781 267.812 295.970781 267.812 
C 295.970781 267.812 295.970781 267.812 295.970781 267.812 
C 295.970781 267.812 295.970781 267.812 295.970781 267.812 
C 295.970781 267.812 295.970781 267.812 295.970781 267.812 
C 295.970781 267.812 295.970781 267.812 295.970781 267.812 
C 295.970781 267.812 295.970781 267.812 295.970781 267.812 
C 295.970781 267.812 295.970781 267.812 295.970781 267.812 
z
" style="fill: #ffffff"/>
   </g>
   <g id="patch_3">
    <path d="M 388.124381 267.812 
L 395.630977 168.151805 
L 295.970781 113.812 
L 177.493626 149.334845 
L 113.141981 267.812 
L 155.366275 408.416506 
L 295.970781 443.4952 
L 445.809537 417.650755 
z
" clip-path="url(#p75eb7257e1)" style="fill: #0000ff; opacity: 0.25; stroke: #0000ff; stroke-linejoin: miter"/>
   </g>
   <g id="patch_4">
    <path d="M 373.093981 267.812 
L 394.115166 169.667615 
L 295.970781 130.6904 
L 182.476636 154.317854 
L 126.053341 267.812 
L 159.37359 404.409191 
L 295.970781 425.7544 
L 445.461074 417.302293 
z
" clip-path="url(#p75eb7257e1)" style="fill: #ff0000; opacity: 0.25; stroke: #ff0000; stroke-linejoin: miter"/>
   </g>
   <g id="patch_5">
    <path d="M 371.122781 267.812 
L 383.086337 180.696445 
L 295.970781 124.4072 
L 194.394044 166.235262 
L 137.535581 267.812 
L 159.199359 404.583422 
L 295.970781 424.0296 
L 445.635305 417.476524 
z
" clip-path="url(#p75eb7257e1)" style="fill: #ffa500; opacity: 0.25; stroke: #ffa500; stroke-linejoin: miter"/>
   </g>
   <g id="patch_6">
    <path d="M 295.970781 267.812 
L 357.300132 206.482649 
L 295.970781 110.6088 
L 229.414497 201.255716 
L 130.636381 267.812 
L 158.676666 405.106115 
L 295.970781 267.812 
L 295.970781 267.812 
z
" clip-path="url(#p75eb7257e1)" style="fill: #00ffff; opacity: 0.25; stroke: #00ffff; stroke-linejoin: miter"/>
   </g>
   <g id="patch_7">
    <path d="M 385.167581 267.812 
L 390.926737 172.856045 
L 295.970781 134.0168 
L 183.591715 155.432933 
L 126.693981 267.812 
L 157.631279 406.151502 
L 295.970781 267.812 
L 295.970781 267.812 
z
" clip-path="url(#p75eb7257e1)" style="fill: #2ca02c; opacity: 0.25; stroke: #2ca02c; stroke-linejoin: miter"/>
   </g>
   <g id="matplotlib.axis_1">
    <g id="xtick_1">
     <g id="line2d_1">
      <path d="M 295.970781 267.812 
L 517.730781 267.812 
" clip-path="url(#p75eb7257e1)" style="fill: none; stroke: #b0b0b0; stroke-width: 0.8; stroke-linecap: square"/>
     </g>
     <g id="text_1">
      <!-- MM-Vet -->
      <g transform="translate(506.239844 271.675125) scale(0.14 -0.14)">
       <defs>
        <path id="DejaVuSans-4d" d="M 628 4666 
L 1569 4666 
L 2759 1491 
L 3956 4666 
L 4897 4666 
L 4897 0 
L 4281 0 
L 4281 4097 
L 3078 897 
L 2444 897 
L 1241 4097 
L 1241 0 
L 628 0 
L 628 4666 
z
" transform="scale(0.015625)"/>
        <path id="DejaVuSans-2d" d="M 313 2009 
L 1997 2009 
L 1997 1497 
L 313 1497 
L 313 2009 
z
" transform="scale(0.015625)"/>
        <path id="DejaVuSans-56" d="M 1831 0 
L 50 4666 
L 709 4666 
L 2188 738 
L 3669 4666 
L 4325 4666 
L 2547 0 
L 1831 0 
z
" transform="scale(0.015625)"/>
        <path id="DejaVuSans-65" d="M 3597 1894 
L 3597 1613 
L 953 1613 
Q 991 1019 1311 708 
Q 1631 397 2203 397 
Q 2534 397 2845 478 
Q 3156 559 3463 722 
L 3463 178 
Q 3153 47 2828 -22 
Q 2503 -91 2169 -91 
Q 1331 -91 842 396 
Q 353 884 353 1716 
Q 353 2575 817 3079 
Q 1281 3584 2069 3584 
Q 2775 3584 3186 3129 
Q 3597 2675 3597 1894 
z
M 3022 2063 
Q 3016 2534 2758 2815 
Q 2500 3097 2075 3097 
Q 1594 3097 1305 2825 
Q 1016 2553 972 2059 
L 3022 2063 
z
" transform="scale(0.015625)"/>
        <path id="DejaVuSans-74" d="M 1172 4494 
L 1172 3500 
L 2356 3500 
L 2356 3053 
L 1172 3053 
L 1172 1153 
Q 1172 725 1289 603 
Q 1406 481 1766 481 
L 2356 481 
L 2356 0 
L 1766 0 
Q 1100 0 847 248 
Q 594 497 594 1153 
L 594 3053 
L 172 3053 
L 172 3500 
L 594 3500 
L 594 4494 
L 1172 4494 
z
" transform="scale(0.015625)"/>
       </defs>
       <use xlink:href="#DejaVuSans-4d"/>
       <use xlink:href="#DejaVuSans-4d" x="86.279297"/>
       <use xlink:href="#DejaVuSans-2d" x="172.558594"/>
       <use xlink:href="#DejaVuSans-56" x="202.767578"/>
       <use xlink:href="#DejaVuSans-65" x="263.425781"/>
       <use xlink:href="#DejaVuSans-74" x="324.949219"/>
      </g>
     </g>
    </g>
    <g id="xtick_2">
     <g id="line2d_2">
      <path d="M 295.970781 267.812 
L 452.778781 111.004 
" clip-path="url(#p75eb7257e1)" style="fill: none; stroke: #b0b0b0; stroke-width: 0.8; stroke-linecap: square"/>
     </g>
     <g id="text_2">
      <!-- VizWizQA -->
      <g transform="translate(429.747651 104.96763) scale(0.14 -0.14)">
       <defs>
        <path id="DejaVuSans-69" d="M 603 3500 
L 1178 3500 
L 1178 0 
L 603 0 
L 603 3500 
z
M 603 4863 
L 1178 4863 
L 1178 4134 
L 603 4134 
L 603 4863 
z
" transform="scale(0.015625)"/>
        <path id="DejaVuSans-7a" d="M 353 3500 
L 3084 3500 
L 3084 2975 
L 922 459 
L 3084 459 
L 3084 0 
L 275 0 
L 275 525 
L 2438 3041 
L 353 3041 
L 353 3500 
z
" transform="scale(0.015625)"/>
        <path id="DejaVuSans-57" d="M 213 4666 
L 850 4666 
L 1831 722 
L 2809 4666 
L 3519 4666 
L 4500 722 
L 5478 4666 
L 6119 4666 
L 4947 0 
L 4153 0 
L 3169 4050 
L 2175 0 
L 1381 0 
L 213 4666 
z
" transform="scale(0.015625)"/>
        <path id="DejaVuSans-51" d="M 2522 4238 
Q 1834 4238 1429 3725 
Q 1025 3213 1025 2328 
Q 1025 1447 1429 934 
Q 1834 422 2522 422 
Q 3209 422 3611 934 
Q 4013 1447 4013 2328 
Q 4013 3213 3611 3725 
Q 3209 4238 2522 4238 
z
M 3406 84 
L 4238 -825 
L 3475 -825 
L 2784 -78 
Q 2681 -84 2626 -87 
Q 2572 -91 2522 -91 
Q 1538 -91 948 567 
Q 359 1225 359 2328 
Q 359 3434 948 4092 
Q 1538 4750 2522 4750 
Q 3503 4750 4090 4092 
Q 4678 3434 4678 2328 
Q 4678 1516 4351 937 
Q 4025 359 3406 84 
z
" transform="scale(0.015625)"/>
        <path id="DejaVuSans-41" d="M 2188 4044 
L 1331 1722 
L 3047 1722 
L 2188 4044 
z
M 1831 4666 
L 2547 4666 
L 4325 0 
L 3669 0 
L 3244 1197 
L 1141 1197 
L 716 0 
L 50 0 
L 1831 4666 
z
" transform="scale(0.015625)"/>
       </defs>
       <use xlink:href="#DejaVuSans-56"/>
       <use xlink:href="#DejaVuSans-69" x="66.158203"/>
       <use xlink:href="#DejaVuSans-7a" x="93.941406"/>
       <use xlink:href="#DejaVuSans-57" x="146.431641"/>
       <use xlink:href="#DejaVuSans-69" x="243.058594"/>
       <use xlink:href="#DejaVuSans-7a" x="270.841797"/>
       <use xlink:href="#DejaVuSans-51" x="323.332031"/>
       <use xlink:href="#DejaVuSans-41" x="402.042969"/>
      </g>
     </g>
    </g>
    <g id="xtick_3">
     <g id="line2d_3">
      <path d="M 295.970781 267.812 
L 295.970781 46.052 
" clip-path="url(#p75eb7257e1)" style="fill: none; stroke: #b0b0b0; stroke-width: 0.8; stroke-linecap: square"/>
     </g>
     <g id="text_3">
      <!-- TextVQA -->
      <g transform="translate(266.726094 35.915125) scale(0.14 -0.14)">
       <defs>
        <path id="DejaVuSans-54" d="M -19 4666 
L 3928 4666 
L 3928 4134 
L 2272 4134 
L 2272 0 
L 1638 0 
L 1638 4134 
L -19 4134 
L -19 4666 
z
" transform="scale(0.015625)"/>
        <path id="DejaVuSans-78" d="M 3513 3500 
L 2247 1797 
L 3578 0 
L 2900 0 
L 1881 1375 
L 863 0 
L 184 0 
L 1544 1831 
L 300 3500 
L 978 3500 
L 1906 2253 
L 2834 3500 
L 3513 3500 
z
" transform="scale(0.015625)"/>
       </defs>
       <use xlink:href="#DejaVuSans-54"/>
       <use xlink:href="#DejaVuSans-65" x="44.083984"/>
       <use xlink:href="#DejaVuSans-78" x="103.857422"/>
       <use xlink:href="#DejaVuSans-74" x="163.037109"/>
       <use xlink:href="#DejaVuSans-56" x="202.246094"/>
       <use xlink:href="#DejaVuSans-51" x="270.654297"/>
       <use xlink:href="#DejaVuSans-41" x="349.365234"/>
      </g>
     </g>
    </g>
    <g id="xtick_4">
     <g id="line2d_4">
      <path d="M 295.970781 267.812 
L 139.162781 111.004 
" clip-path="url(#p75eb7257e1)" style="fill: none; stroke: #b0b0b0; stroke-width: 0.8; stroke-linecap: square"/>
     </g>
     <g id="text_4">
      <!-- MMBench -->
      <g transform="translate(95.352662 104.96763) scale(0.14 -0.14)">
       <defs>
        <path id="DejaVuSans-42" d="M 1259 2228 
L 1259 519 
L 2272 519 
Q 2781 519 3026 730 
Q 3272 941 3272 1375 
Q 3272 1813 3026 2020 
Q 2781 2228 2272 2228 
L 1259 2228 
z
M 1259 4147 
L 1259 2741 
L 2194 2741 
Q 2656 2741 2882 2914 
Q 3109 3088 3109 3444 
Q 3109 3797 2882 3972 
Q 2656 4147 2194 4147 
L 1259 4147 
z
M 628 4666 
L 2241 4666 
Q 2963 4666 3353 4366 
Q 3744 4066 3744 3513 
Q 3744 3084 3544 2831 
Q 3344 2578 2956 2516 
Q 3422 2416 3680 2098 
Q 3938 1781 3938 1306 
Q 3938 681 3513 340 
Q 3088 0 2303 0 
L 628 0 
L 628 4666 
z
" transform="scale(0.015625)"/>
        <path id="DejaVuSans-6e" d="M 3513 2113 
L 3513 0 
L 2938 0 
L 2938 2094 
Q 2938 2591 2744 2837 
Q 2550 3084 2163 3084 
Q 1697 3084 1428 2787 
Q 1159 2491 1159 1978 
L 1159 0 
L 581 0 
L 581 3500 
L 1159 3500 
L 1159 2956 
Q 1366 3272 1645 3428 
Q 1925 3584 2291 3584 
Q 2894 3584 3203 3211 
Q 3513 2838 3513 2113 
z
" transform="scale(0.015625)"/>
        <path id="DejaVuSans-63" d="M 3122 3366 
L 3122 2828 
Q 2878 2963 2633 3030 
Q 2388 3097 2138 3097 
Q 1578 3097 1268 2742 
Q 959 2388 959 1747 
Q 959 1106 1268 751 
Q 1578 397 2138 397 
Q 2388 397 2633 464 
Q 2878 531 3122 666 
L 3122 134 
Q 2881 22 2623 -34 
Q 2366 -91 2075 -91 
Q 1284 -91 818 406 
Q 353 903 353 1747 
Q 353 2603 823 3093 
Q 1294 3584 2113 3584 
Q 2378 3584 2631 3529 
Q 2884 3475 3122 3366 
z
" transform="scale(0.015625)"/>
        <path id="DejaVuSans-68" d="M 3513 2113 
L 3513 0 
L 2938 0 
L 2938 2094 
Q 2938 2591 2744 2837 
Q 2550 3084 2163 3084 
Q 1697 3084 1428 2787 
Q 1159 2491 1159 1978 
L 1159 0 
L 581 0 
L 581 4863 
L 1159 4863 
L 1159 2956 
Q 1366 3272 1645 3428 
Q 1925 3584 2291 3584 
Q 2894 3584 3203 3211 
Q 3513 2838 3513 2113 
z
" transform="scale(0.015625)"/>
       </defs>
       <use xlink:href="#DejaVuSans-4d"/>
       <use xlink:href="#DejaVuSans-4d" x="86.279297"/>
       <use xlink:href="#DejaVuSans-42" x="172.558594"/>
       <use xlink:href="#DejaVuSans-65" x="241.162109"/>
       <use xlink:href="#DejaVuSans-6e" x="302.685547"/>
       <use xlink:href="#DejaVuSans-63" x="366.064453"/>
       <use xlink:href="#DejaVuSans-68" x="421.044922"/>
      </g>
     </g>
    </g>
    <g id="xtick_5">
     <g id="line2d_5">
      <path d="M 295.970781 267.812 
L 74.210781 267.812 
" clip-path="url(#p75eb7257e1)" style="fill: none; stroke: #b0b0b0; stroke-width: 0.8; stroke-linecap: square"/>
     </g>
     <g id="text_5">
      <!-- ScienceQA-img -->
      <g transform="translate(7.2 271.675125) scale(0.14 -0.14)">
       <defs>
        <path id="DejaVuSans-53" d="M 3425 4513 
L 3425 3897 
Q 3066 4069 2747 4153 
Q 2428 4238 2131 4238 
Q 1616 4238 1336 4038 
Q 1056 3838 1056 3469 
Q 1056 3159 1242 3001 
Q 1428 2844 1947 2747 
L 2328 2669 
Q 3034 2534 3370 2195 
Q 3706 1856 3706 1288 
Q 3706 609 3251 259 
Q 2797 -91 1919 -91 
Q 1588 -91 1214 -16 
Q 841 59 441 206 
L 441 856 
Q 825 641 1194 531 
Q 1563 422 1919 422 
Q 2459 422 2753 634 
Q 3047 847 3047 1241 
Q 3047 1584 2836 1778 
Q 2625 1972 2144 2069 
L 1759 2144 
Q 1053 2284 737 2584 
Q 422 2884 422 3419 
Q 422 4038 858 4394 
Q 1294 4750 2059 4750 
Q 2388 4750 2728 4690 
Q 3069 4631 3425 4513 
z
" transform="scale(0.015625)"/>
        <path id="DejaVuSans-6d" d="M 3328 2828 
Q 3544 3216 3844 3400 
Q 4144 3584 4550 3584 
Q 5097 3584 5394 3201 
Q 5691 2819 5691 2113 
L 5691 0 
L 5113 0 
L 5113 2094 
Q 5113 2597 4934 2840 
Q 4756 3084 4391 3084 
Q 3944 3084 3684 2787 
Q 3425 2491 3425 1978 
L 3425 0 
L 2847 0 
L 2847 2094 
Q 2847 2600 2669 2842 
Q 2491 3084 2119 3084 
Q 1678 3084 1418 2786 
Q 1159 2488 1159 1978 
L 1159 0 
L 581 0 
L 581 3500 
L 1159 3500 
L 1159 2956 
Q 1356 3278 1631 3431 
Q 1906 3584 2284 3584 
Q 2666 3584 2933 3390 
Q 3200 3197 3328 2828 
z
" transform="scale(0.015625)"/>
        <path id="DejaVuSans-67" d="M 2906 1791 
Q 2906 2416 2648 2759 
Q 2391 3103 1925 3103 
Q 1463 3103 1205 2759 
Q 947 2416 947 1791 
Q 947 1169 1205 825 
Q 1463 481 1925 481 
Q 2391 481 2648 825 
Q 2906 1169 2906 1791 
z
M 3481 434 
Q 3481 -459 3084 -895 
Q 2688 -1331 1869 -1331 
Q 1566 -1331 1297 -1286 
Q 1028 -1241 775 -1147 
L 775 -588 
Q 1028 -725 1275 -790 
Q 1522 -856 1778 -856 
Q 2344 -856 2625 -561 
Q 2906 -266 2906 331 
L 2906 616 
Q 2728 306 2450 153 
Q 2172 0 1784 0 
Q 1141 0 747 490 
Q 353 981 353 1791 
Q 353 2603 747 3093 
Q 1141 3584 1784 3584 
Q 2172 3584 2450 3431 
Q 2728 3278 2906 2969 
L 2906 3500 
L 3481 3500 
L 3481 434 
z
" transform="scale(0.015625)"/>
       </defs>
       <use xlink:href="#DejaVuSans-53"/>
       <use xlink:href="#DejaVuSans-63" x="63.476562"/>
       <use xlink:href="#DejaVuSans-69" x="118.457031"/>
       <use xlink:href="#DejaVuSans-65" x="146.240234"/>
       <use xlink:href="#DejaVuSans-6e" x="207.763672"/>
       <use xlink:href="#DejaVuSans-63" x="271.142578"/>
       <use xlink:href="#DejaVuSans-65" x="326.123047"/>
       <use xlink:href="#DejaVuSans-51" x="387.646484"/>
       <use xlink:href="#DejaVuSans-41" x="466.357422"/>
       <use xlink:href="#DejaVuSans-2d" x="532.515625"/>
       <use xlink:href="#DejaVuSans-69" x="568.599609"/>
       <use xlink:href="#DejaVuSans-6d" x="596.382812"/>
       <use xlink:href="#DejaVuSans-67" x="693.794922"/>
      </g>
     </g>
    </g>
    <g id="xtick_6">
     <g id="line2d_6">
      <path d="M 295.970781 267.812 
L 139.162781 424.62 
" clip-path="url(#p75eb7257e1)" style="fill: none; stroke: #b0b0b0; stroke-width: 0.8; stroke-linecap: square"/>
     </g>
     <g id="text_6">
      <!-- VQAv2 -->
      <g transform="translate(105.990474 438.38262) scale(0.14 -0.14)">
       <defs>
        <path id="DejaVuSans-76" d="M 191 3500 
L 800 3500 
L 1894 563 
L 2988 3500 
L 3597 3500 
L 2284 0 
L 1503 0 
L 191 3500 
z
" transform="scale(0.015625)"/>
        <path id="DejaVuSans-32" d="M 1228 531 
L 3431 531 
L 3431 0 
L 469 0 
L 469 531 
Q 828 903 1448 1529 
Q 2069 2156 2228 2338 
Q 2531 2678 2651 2914 
Q 2772 3150 2772 3378 
Q 2772 3750 2511 3984 
Q 2250 4219 1831 4219 
Q 1534 4219 1204 4116 
Q 875 4013 500 3803 
L 500 4441 
Q 881 4594 1212 4672 
Q 1544 4750 1819 4750 
Q 2544 4750 2975 4387 
Q 3406 4025 3406 3419 
Q 3406 3131 3298 2873 
Q 3191 2616 2906 2266 
Q 2828 2175 2409 1742 
Q 1991 1309 1228 531 
z
" transform="scale(0.015625)"/>
       </defs>
       <use xlink:href="#DejaVuSans-56"/>
       <use xlink:href="#DejaVuSans-51" x="68.408203"/>
       <use xlink:href="#DejaVuSans-41" x="147.119141"/>
       <use xlink:href="#DejaVuSans-76" x="209.652344"/>
       <use xlink:href="#DejaVuSans-32" x="268.832031"/>
      </g>
     </g>
    </g>
    <g id="xtick_7">
     <g id="line2d_7">
      <path d="M 295.970781 267.812 
L 295.970781 489.572 
" clip-path="url(#p75eb7257e1)" style="fill: none; stroke: #b0b0b0; stroke-width: 0.8; stroke-linecap: square"/>
     </g>
     <g id="text_7">
      <!-- LLaVABench -->
      <g transform="translate(252.918594 507.435125) scale(0.14 -0.14)">
       <defs>
        <path id="DejaVuSans-4c" d="M 628 4666 
L 1259 4666 
L 1259 531 
L 3531 531 
L 3531 0 
L 628 0 
L 628 4666 
z
" transform="scale(0.015625)"/>
        <path id="DejaVuSans-61" d="M 2194 1759 
Q 1497 1759 1228 1600 
Q 959 1441 959 1056 
Q 959 750 1161 570 
Q 1363 391 1709 391 
Q 2188 391 2477 730 
Q 2766 1069 2766 1631 
L 2766 1759 
L 2194 1759 
z
M 3341 1997 
L 3341 0 
L 2766 0 
L 2766 531 
Q 2569 213 2275 61 
Q 1981 -91 1556 -91 
Q 1019 -91 701 211 
Q 384 513 384 1019 
Q 384 1609 779 1909 
Q 1175 2209 1959 2209 
L 2766 2209 
L 2766 2266 
Q 2766 2663 2505 2880 
Q 2244 3097 1772 3097 
Q 1472 3097 1187 3025 
Q 903 2953 641 2809 
L 641 3341 
Q 956 3463 1253 3523 
Q 1550 3584 1831 3584 
Q 2591 3584 2966 3190 
Q 3341 2797 3341 1997 
z
" transform="scale(0.015625)"/>
       </defs>
       <use xlink:href="#DejaVuSans-4c"/>
       <use xlink:href="#DejaVuSans-4c" x="55.712891"/>
       <use xlink:href="#DejaVuSans-61" x="111.425781"/>
       <use xlink:href="#DejaVuSans-56" x="172.705078"/>
       <use xlink:href="#DejaVuSans-41" x="234.738281"/>
       <use xlink:href="#DejaVuSans-42" x="303.146484"/>
       <use xlink:href="#DejaVuSans-65" x="371.75"/>
       <use xlink:href="#DejaVuSans-6e" x="433.273438"/>
       <use xlink:href="#DejaVuSans-63" x="496.652344"/>
       <use xlink:href="#DejaVuSans-68" x="551.632812"/>
      </g>
     </g>
    </g>
    <g id="xtick_8">
     <g id="line2d_8">
      <path d="M 295.970781 267.812 
L 452.778781 424.62 
" clip-path="url(#p75eb7257e1)" style="fill: none; stroke: #b0b0b0; stroke-width: 0.8; stroke-linecap: square"/>
     </g>
     <g id="text_8">
      <!-- POPE -->
      <g transform="translate(444.303276 438.38262) scale(0.14 -0.14)">
       <defs>
        <path id="DejaVuSans-50" d="M 1259 4147 
L 1259 2394 
L 2053 2394 
Q 2494 2394 2734 2622 
Q 2975 2850 2975 3272 
Q 2975 3691 2734 3919 
Q 2494 4147 2053 4147 
L 1259 4147 
z
M 628 4666 
L 2053 4666 
Q 2838 4666 3239 4311 
Q 3641 3956 3641 3272 
Q 3641 2581 3239 2228 
Q 2838 1875 2053 1875 
L 1259 1875 
L 1259 0 
L 628 0 
L 628 4666 
z
" transform="scale(0.015625)"/>
        <path id="DejaVuSans-4f" d="M 2522 4238 
Q 1834 4238 1429 3725 
Q 1025 3213 1025 2328 
Q 1025 1447 1429 934 
Q 1834 422 2522 422 
Q 3209 422 3611 934 
Q 4013 1447 4013 2328 
Q 4013 3213 3611 3725 
Q 3209 4238 2522 4238 
z
M 2522 4750 
Q 3503 4750 4090 4092 
Q 4678 3434 4678 2328 
Q 4678 1225 4090 567 
Q 3503 -91 2522 -91 
Q 1538 -91 948 565 
Q 359 1222 359 2328 
Q 359 3434 948 4092 
Q 1538 4750 2522 4750 
z
" transform="scale(0.015625)"/>
        <path id="DejaVuSans-45" d="M 628 4666 
L 3578 4666 
L 3578 4134 
L 1259 4134 
L 1259 2753 
L 3481 2753 
L 3481 2222 
L 1259 2222 
L 1259 531 
L 3634 531 
L 3634 0 
L 628 0 
L 628 4666 
z
" transform="scale(0.015625)"/>
       </defs>
       <use xlink:href="#DejaVuSans-50"/>
       <use xlink:href="#DejaVuSans-4f" x="60.302734"/>
       <use xlink:href="#DejaVuSans-50" x="139.013672"/>
       <use xlink:href="#DejaVuSans-45" x="199.316406"/>
      </g>
     </g>
    </g>
   </g>
   <g id="matplotlib.axis_2">
    <g id="ytick_1">
     <g id="line2d_9">
      <path d="M 295.970781 267.812 
C 295.970781 267.812 295.970781 267.812 295.970781 267.812 
C 295.970781 267.812 295.970781 267.812 295.970781 267.812 
C 295.970781 267.812 295.970781 267.812 295.970781 267.812 
C 295.970781 267.812 295.970781 267.812 295.970781 267.812 
C 295.970781 267.812 295.970781 267.812 295.970781 267.812 
C 295.970781 267.812 295.970781 267.812 295.970781 267.812 
C 295.970781 267.812 295.970781 267.812 295.970781 267.812 
C 295.970781 267.812 295.970781 267.812 295.970781 267.812 
C 295.970781 267.812 295.970781 267.812 295.970781 267.812 
C 295.970781 267.812 295.970781 267.812 295.970781 267.812 
C 295.970781 267.812 295.970781 267.812 295.970781 267.812 
C 295.970781 267.812 295.970781 267.812 295.970781 267.812 
C 295.970781 267.812 295.970781 267.812 295.970781 267.812 
C 295.970781 267.812 295.970781 267.812 295.970781 267.812 
C 295.970781 267.812 295.970781 267.812 295.970781 267.812 
C 295.970781 267.812 295.970781 267.812 295.970781 267.812 
" clip-path="url(#p75eb7257e1)" style="fill: none; stroke: #b0b0b0; stroke-width: 0.8; stroke-linecap: square"/>
     </g>
     <g id="text_9">
      <!-- 0 -->
      <g transform="translate(295.970781 265.732312) scale(0.1 -0.1)">
       <defs>
        <path id="DejaVuSans-30" d="M 2034 4250 
Q 1547 4250 1301 3770 
Q 1056 3291 1056 2328 
Q 1056 1369 1301 889 
Q 1547 409 2034 409 
Q 2525 409 2770 889 
Q 3016 1369 3016 2328 
Q 3016 3291 2770 3770 
Q 2525 4250 2034 4250 
z
M 2034 4750 
Q 2819 4750 3233 4129 
Q 3647 3509 3647 2328 
Q 3647 1150 3233 529 
Q 2819 -91 2034 -91 
Q 1250 -91 836 529 
Q 422 1150 422 2328 
Q 422 3509 836 4129 
Q 1250 4750 2034 4750 
z
" transform="scale(0.015625)"/>
       </defs>
       <use xlink:href="#DejaVuSans-30"/>
      </g>
     </g>
    </g>
    <g id="ytick_2">
     <g id="line2d_10">
      <path d="M 357.570781 267.812 
C 357.570781 259.722762 355.977378 251.712182 352.88176 244.238701 
C 349.786143 236.765219 345.248514 229.974177 339.528559 224.254222 
C 333.808604 218.534267 327.017562 213.996638 319.544081 210.901021 
C 312.070599 207.805403 304.060019 206.212 295.970781 206.212 
C 287.881543 206.212 279.870963 207.805403 272.397482 210.901021 
C 264.924001 213.996638 258.132958 218.534267 252.413004 224.254222 
C 246.693049 229.974177 242.155419 236.765219 239.059802 244.238701 
C 235.964185 251.712182 234.370781 259.722762 234.370781 267.812 
C 234.370781 275.901238 235.964185 283.911818 239.059802 291.385299 
C 242.155419 298.858781 246.693049 305.649823 252.413004 311.369778 
C 258.132958 317.089733 264.924001 321.627362 272.397482 324.722979 
C 279.870963 327.818597 287.881543 329.412 295.970781 329.412 
C 304.060019 329.412 312.070599 327.818597 319.544081 324.722979 
C 327.017562 321.627362 333.808604 317.089733 339.528559 311.369778 
C 345.248514 305.649823 349.786143 298.858781 352.88176 291.385299 
C 355.977378 283.911818 357.570781 275.901238 357.570781 267.812 
" clip-path="url(#p75eb7257e1)" style="fill: none; stroke: #b0b0b0; stroke-width: 0.8; stroke-linecap: square"/>
     </g>
     <g id="text_10">
      <!-- 25 -->
      <g transform="translate(352.88176 242.159013) scale(0.1 -0.1)">
       <defs>
        <path id="DejaVuSans-35" d="M 691 4666 
L 3169 4666 
L 3169 4134 
L 1269 4134 
L 1269 2991 
Q 1406 3038 1543 3061 
Q 1681 3084 1819 3084 
Q 2600 3084 3056 2656 
Q 3513 2228 3513 1497 
Q 3513 744 3044 326 
Q 2575 -91 1722 -91 
Q 1428 -91 1123 -41 
Q 819 9 494 109 
L 494 744 
Q 775 591 1075 516 
Q 1375 441 1709 441 
Q 2250 441 2565 725 
Q 2881 1009 2881 1497 
Q 2881 1984 2565 2268 
Q 2250 2553 1709 2553 
Q 1456 2553 1204 2497 
Q 953 2441 691 2322 
L 691 4666 
z
" transform="scale(0.015625)"/>
       </defs>
       <use xlink:href="#DejaVuSans-32"/>
       <use xlink:href="#DejaVuSans-35" x="63.623047"/>
      </g>
     </g>
    </g>
    <g id="ytick_3">
     <g id="line2d_11">
      <path d="M 382.210781 267.812 
C 382.210781 256.487067 379.980016 245.272255 375.646152 234.809381 
C 371.312288 224.346507 364.959607 214.839048 356.95167 206.831111 
C 348.943733 198.823174 339.436274 192.470493 328.9734 188.136629 
C 318.510527 183.802765 307.295714 181.572 295.970781 181.572 
C 284.645848 181.572 273.431036 183.802765 262.968162 188.136629 
C 252.505288 192.470493 242.997829 198.823174 234.989892 206.831111 
C 226.981955 214.839048 220.629275 224.346507 216.29541 234.809381 
C 211.961546 245.272255 209.730781 256.487067 209.730781 267.812 
C 209.730781 279.136933 211.961546 290.351745 216.29541 300.814619 
C 220.629275 311.277493 226.981955 320.784952 234.989892 328.792889 
C 242.997829 336.800826 252.505288 343.153507 262.968162 347.487371 
C 273.431036 351.821235 284.645848 354.052 295.970781 354.052 
C 307.295714 354.052 318.510527 351.821235 328.9734 347.487371 
C 339.436274 343.153507 348.943733 336.800826 356.95167 328.792889 
C 364.959607 320.784952 371.312288 311.277493 375.646152 300.814619 
C 379.980016 290.351745 382.210781 279.136933 382.210781 267.812 
" clip-path="url(#p75eb7257e1)" style="fill: none; stroke: #b0b0b0; stroke-width: 0.8; stroke-linecap: square"/>
     </g>
     <g id="text_11">
      <!-- 35 -->
      <g transform="translate(375.646152 232.729693) scale(0.1 -0.1)">
       <defs>
        <path id="DejaVuSans-33" d="M 2597 2516 
Q 3050 2419 3304 2112 
Q 3559 1806 3559 1356 
Q 3559 666 3084 287 
Q 2609 -91 1734 -91 
Q 1441 -91 1130 -33 
Q 819 25 488 141 
L 488 750 
Q 750 597 1062 519 
Q 1375 441 1716 441 
Q 2309 441 2620 675 
Q 2931 909 2931 1356 
Q 2931 1769 2642 2001 
Q 2353 2234 1838 2234 
L 1294 2234 
L 1294 2753 
L 1863 2753 
Q 2328 2753 2575 2939 
Q 2822 3125 2822 3475 
Q 2822 3834 2567 4026 
Q 2313 4219 1838 4219 
Q 1578 4219 1281 4162 
Q 984 4106 628 3988 
L 628 4550 
Q 988 4650 1302 4700 
Q 1616 4750 1894 4750 
Q 2613 4750 3031 4423 
Q 3450 4097 3450 3541 
Q 3450 3153 3228 2886 
Q 3006 2619 2597 2516 
z
" transform="scale(0.015625)"/>
       </defs>
       <use xlink:href="#DejaVuSans-33"/>
       <use xlink:href="#DejaVuSans-35" x="63.623047"/>
      </g>
     </g>
    </g>
    <g id="ytick_4">
     <g id="line2d_12">
      <path d="M 394.530781 267.812 
C 394.530781 254.869219 391.981336 242.052291 387.028348 230.094721 
C 382.07536 218.137151 374.815154 207.271484 365.663226 198.119556 
C 356.511298 188.967628 345.64563 181.707421 333.68806 176.754433 
C 321.73049 171.801446 308.913562 169.252 295.970781 169.252 
C 283.028001 169.252 270.211072 171.801446 258.253502 176.754433 
C 246.295932 181.707421 235.430265 188.967628 226.278337 198.119556 
C 217.126409 207.271484 209.866202 218.137151 204.913215 230.094721 
C 199.960227 242.052291 197.410781 254.869219 197.410781 267.812 
C 197.410781 280.754781 199.960227 293.571709 204.913215 305.529279 
C 209.866202 317.486849 217.126409 328.352516 226.278337 337.504444 
C 235.430265 346.656372 246.295932 353.916579 258.253502 358.869567 
C 270.211072 363.822554 283.028001 366.372 295.970781 366.372 
C 308.913562 366.372 321.73049 363.822554 333.68806 358.869567 
C 345.64563 353.916579 356.511298 346.656372 365.663226 337.504444 
C 374.815154 328.352516 382.07536 317.486849 387.028348 305.529279 
C 391.981336 293.571709 394.530781 280.754781 394.530781 267.812 
" clip-path="url(#p75eb7257e1)" style="fill: none; stroke: #b0b0b0; stroke-width: 0.8; stroke-linecap: square"/>
     </g>
     <g id="text_12">
      <!-- 40 -->
      <g transform="translate(387.028348 228.015033) scale(0.1 -0.1)">
       <defs>
        <path id="DejaVuSans-34" d="M 2419 4116 
L 825 1625 
L 2419 1625 
L 2419 4116 
z
M 2253 4666 
L 3047 4666 
L 3047 1625 
L 3713 1625 
L 3713 1100 
L 3047 1100 
L 3047 0 
L 2419 0 
L 2419 1100 
L 313 1100 
L 313 1709 
L 2253 4666 
z
" transform="scale(0.015625)"/>
       </defs>
       <use xlink:href="#DejaVuSans-34"/>
       <use xlink:href="#DejaVuSans-30" x="63.623047"/>
      </g>
     </g>
    </g>
    <g id="ytick_5">
     <g id="line2d_13">
      <path d="M 406.850781 267.812 
C 406.850781 253.251372 403.982655 238.832327 398.410544 225.380061 
C 392.838433 211.927795 384.6707 199.703919 374.374781 189.408 
C 364.078862 179.112081 351.854987 170.944349 338.40272 165.372237 
C 324.950454 159.800126 310.531409 156.932 295.970781 156.932 
C 281.410153 156.932 266.991109 159.800126 253.538842 165.372237 
C 240.086576 170.944349 227.8627 179.112081 217.566781 189.408 
C 207.270862 199.703919 199.10313 211.927795 193.531019 225.380061 
C 187.958908 238.832327 185.090781 253.251372 185.090781 267.812 
C 185.090781 282.372628 187.958908 296.791673 193.531019 310.243939 
C 199.10313 323.696205 207.270862 335.920081 217.566781 346.216 
C 227.8627 356.511919 240.086576 364.679651 253.538842 370.251763 
C 266.991109 375.823874 281.410153 378.692 295.970781 378.692 
C 310.531409 378.692 324.950454 375.823874 338.40272 370.251763 
C 351.854987 364.679651 364.078862 356.511919 374.374781 346.216 
C 384.6707 335.920081 392.838433 323.696205 398.410544 310.243939 
C 403.982655 296.791673 406.850781 282.372628 406.850781 267.812 
" clip-path="url(#p75eb7257e1)" style="fill: none; stroke: #b0b0b0; stroke-width: 0.8; stroke-linecap: square"/>
     </g>
     <g id="text_13">
      <!-- 45 -->
      <g transform="translate(398.410544 223.300374) scale(0.1 -0.1)">
       <use xlink:href="#DejaVuSans-34"/>
       <use xlink:href="#DejaVuSans-35" x="63.623047"/>
      </g>
     </g>
    </g>
    <g id="ytick_6">
     <g id="line2d_14">
      <path d="M 431.490781 267.812 
C 431.490781 250.015677 427.985294 232.3924 421.174935 215.950741 
C 414.364577 199.509082 404.381793 184.56879 391.797892 171.984889 
C 379.213991 159.400988 364.273699 149.418204 347.83204 142.607846 
C 331.390381 135.797488 313.767105 132.292 295.970781 132.292 
C 278.174458 132.292 260.551181 135.797488 244.109522 142.607846 
C 227.667864 149.418204 212.727571 159.400988 200.14367 171.984889 
C 187.559769 184.56879 177.576985 199.509082 170.766627 215.950741 
C 163.956269 232.3924 160.450781 250.015677 160.450781 267.812 
C 160.450781 285.608323 163.956269 303.2316 170.766627 319.673259 
C 177.576985 336.114918 187.559769 351.05521 200.14367 363.639111 
C 212.727571 376.223012 227.667864 386.205796 244.109522 393.016154 
C 260.551181 399.826512 278.174458 403.332 295.970781 403.332 
C 313.767105 403.332 331.390381 399.826512 347.83204 393.016154 
C 364.273699 386.205796 379.213991 376.223012 391.797892 363.639111 
C 404.381793 351.05521 414.364577 336.114918 421.174935 319.673259 
C 427.985294 303.2316 431.490781 285.608323 431.490781 267.812 
" clip-path="url(#p75eb7257e1)" style="fill: none; stroke: #b0b0b0; stroke-width: 0.8; stroke-linecap: square"/>
     </g>
     <g id="text_14">
      <!-- 55 -->
      <g transform="translate(421.174935 213.871054) scale(0.1 -0.1)">
       <use xlink:href="#DejaVuSans-35"/>
       <use xlink:href="#DejaVuSans-35" x="63.623047"/>
      </g>
     </g>
    </g>
    <g id="ytick_7">
     <g id="line2d_15">
      <path d="M 443.810781 267.812 
C 443.810781 248.397829 439.986613 229.172437 432.557131 211.236081 
C 425.12765 193.299726 414.23734 177.001225 400.509448 163.273333 
C 386.781556 149.545442 370.483055 138.655131 352.5467 131.22565 
C 334.610345 123.796168 315.384952 119.972 295.970781 119.972 
C 276.55661 119.972 257.331218 123.796168 239.394863 131.22565 
C 221.458507 138.655131 205.160007 149.545442 191.432115 163.273333 
C 177.704223 177.001225 166.813913 193.299726 159.384431 211.236081 
C 151.95495 229.172437 148.130781 248.397829 148.130781 267.812 
C 148.130781 287.226171 151.95495 306.451563 159.384431 324.387919 
C 166.813913 342.324274 177.704223 358.622775 191.432115 372.350667 
C 205.160007 386.078558 221.458507 396.968869 239.394863 404.39835 
C 257.331218 411.827832 276.55661 415.652 295.970781 415.652 
C 315.384952 415.652 334.610345 411.827832 352.5467 404.39835 
C 370.483055 396.968869 386.781556 386.078558 400.509448 372.350667 
C 414.23734 358.622775 425.12765 342.324274 432.557131 324.387919 
C 439.986613 306.451563 443.810781 287.226171 443.810781 267.812 
" clip-path="url(#p75eb7257e1)" style="fill: none; stroke: #b0b0b0; stroke-width: 0.8; stroke-linecap: square"/>
     </g>
     <g id="text_15">
      <!-- 60 -->
      <g transform="translate(432.557131 209.156394) scale(0.1 -0.1)">
       <defs>
        <path id="DejaVuSans-36" d="M 2113 2584 
Q 1688 2584 1439 2293 
Q 1191 2003 1191 1497 
Q 1191 994 1439 701 
Q 1688 409 2113 409 
Q 2538 409 2786 701 
Q 3034 994 3034 1497 
Q 3034 2003 2786 2293 
Q 2538 2584 2113 2584 
z
M 3366 4563 
L 3366 3988 
Q 3128 4100 2886 4159 
Q 2644 4219 2406 4219 
Q 1781 4219 1451 3797 
Q 1122 3375 1075 2522 
Q 1259 2794 1537 2939 
Q 1816 3084 2150 3084 
Q 2853 3084 3261 2657 
Q 3669 2231 3669 1497 
Q 3669 778 3244 343 
Q 2819 -91 2113 -91 
Q 1303 -91 875 529 
Q 447 1150 447 2328 
Q 447 3434 972 4092 
Q 1497 4750 2381 4750 
Q 2619 4750 2861 4703 
Q 3103 4656 3366 4563 
z
" transform="scale(0.015625)"/>
       </defs>
       <use xlink:href="#DejaVuSans-36"/>
       <use xlink:href="#DejaVuSans-30" x="63.623047"/>
      </g>
     </g>
    </g>
    <g id="ytick_8">
     <g id="line2d_16">
      <path d="M 456.130781 267.812 
C 456.130781 246.779982 451.987932 225.952473 443.939327 206.521421 
C 435.890722 187.09037 424.092886 169.433661 409.221003 154.561778 
C 394.34912 139.689895 376.692411 127.892059 357.26136 119.843454 
C 337.830308 111.794849 317.0028 107.652 295.970781 107.652 
C 274.938763 107.652 254.111254 111.794849 234.680203 119.843454 
C 215.249151 127.892059 197.592442 139.689895 182.720559 154.561778 
C 167.848676 169.433661 156.05084 187.09037 148.002235 206.521421 
C 139.95363 225.952473 135.810781 246.779982 135.810781 267.812 
C 135.810781 288.844018 139.95363 309.671527 148.002235 329.102579 
C 156.05084 348.53363 167.848676 366.190339 182.720559 381.062222 
C 197.592442 395.934105 215.249151 407.731941 234.680203 415.780546 
C 254.111254 423.829151 274.938763 427.972 295.970781 427.972 
C 317.0028 427.972 337.830308 423.829151 357.26136 415.780546 
C 376.692411 407.731941 394.34912 395.934105 409.221003 381.062222 
C 424.092886 366.190339 435.890722 348.53363 443.939327 329.102579 
C 451.987932 309.671527 456.130781 288.844018 456.130781 267.812 
" clip-path="url(#p75eb7257e1)" style="fill: none; stroke: #b0b0b0; stroke-width: 0.8; stroke-linecap: square"/>
     </g>
     <g id="text_16">
      <!-- 65 -->
      <g transform="translate(443.939327 204.441734) scale(0.1 -0.1)">
       <use xlink:href="#DejaVuSans-36"/>
       <use xlink:href="#DejaVuSans-35" x="63.623047"/>
      </g>
     </g>
    </g>
    <g id="ytick_9">
     <g id="line2d_17">
      <path d="M 480.770781 267.812 
C 480.770781 243.544286 475.990571 219.512546 466.703719 197.092102 
C 457.416867 174.671658 443.803979 154.298532 426.644114 137.138667 
C 409.48425 119.978802 389.111123 106.365914 366.69068 97.079062 
C 344.270236 87.79221 320.238495 83.012 295.970781 83.012 
C 271.703068 83.012 247.671327 87.79221 225.250883 97.079062 
C 202.830439 106.365914 182.457313 119.978802 165.297448 137.138667 
C 148.137583 154.298532 134.524696 174.671658 125.237844 197.092102 
C 115.950992 219.512546 111.170781 243.544286 111.170781 267.812 
C 111.170781 292.079714 115.950992 316.111454 125.237844 338.531898 
C 134.524696 360.952342 148.137583 381.325468 165.297448 398.485333 
C 182.457313 415.645198 202.830439 429.258086 225.250883 438.544938 
C 247.671327 447.83179 271.703068 452.612 295.970781 452.612 
C 320.238495 452.612 344.270236 447.83179 366.69068 438.544938 
C 389.111123 429.258086 409.48425 415.645198 426.644114 398.485333 
C 443.803979 381.325468 457.416867 360.952342 466.703719 338.531898 
C 475.990571 316.111454 480.770781 292.079714 480.770781 267.812 
" clip-path="url(#p75eb7257e1)" style="fill: none; stroke: #b0b0b0; stroke-width: 0.8; stroke-linecap: square"/>
     </g>
     <g id="text_17">
      <!-- 75 -->
      <g transform="translate(466.703719 195.012414) scale(0.1 -0.1)">
       <defs>
        <path id="DejaVuSans-37" d="M 525 4666 
L 3525 4666 
L 3525 4397 
L 1831 0 
L 1172 0 
L 2766 4134 
L 525 4134 
L 525 4666 
z
" transform="scale(0.015625)"/>
       </defs>
       <use xlink:href="#DejaVuSans-37"/>
       <use xlink:href="#DejaVuSans-35" x="63.623047"/>
      </g>
     </g>
    </g>
    <g id="ytick_10">
     <g id="line2d_18">
      <path d="M 493.090781 267.812 
C 493.090781 241.926439 487.99189 216.292582 478.085915 192.377442 
C 468.179939 168.462302 453.659526 146.730967 435.35567 128.427111 
C 417.051814 110.123255 395.32048 95.602842 371.405339 85.696867 
C 347.490199 75.790891 321.856342 70.692 295.970781 70.692 
C 270.08522 70.692 244.451363 75.790891 220.536223 85.696867 
C 196.621083 95.602842 174.889748 110.123255 156.585893 128.427111 
C 138.282037 146.730967 123.761623 168.462302 113.855648 192.377442 
C 103.949672 216.292582 98.850781 241.926439 98.850781 267.812 
C 98.850781 293.697561 103.949672 319.331418 113.855648 343.246558 
C 123.761623 367.161698 138.282037 388.893033 156.585893 407.196889 
C 174.889748 425.500745 196.621083 440.021158 220.536223 449.927133 
C 244.451363 459.833109 270.08522 464.932 295.970781 464.932 
C 321.856342 464.932 347.490199 459.833109 371.405339 449.927133 
C 395.32048 440.021158 417.051814 425.500745 435.35567 407.196889 
C 453.659526 388.893033 468.179939 367.161698 478.085915 343.246558 
C 487.99189 319.331418 493.090781 293.697561 493.090781 267.812 
" clip-path="url(#p75eb7257e1)" style="fill: none; stroke: #b0b0b0; stroke-width: 0.8; stroke-linecap: square"/>
     </g>
     <g id="text_18">
      <!-- 80 -->
      <g transform="translate(478.085915 190.297754) scale(0.1 -0.1)">
       <defs>
        <path id="DejaVuSans-38" d="M 2034 2216 
Q 1584 2216 1326 1975 
Q 1069 1734 1069 1313 
Q 1069 891 1326 650 
Q 1584 409 2034 409 
Q 2484 409 2743 651 
Q 3003 894 3003 1313 
Q 3003 1734 2745 1975 
Q 2488 2216 2034 2216 
z
M 1403 2484 
Q 997 2584 770 2862 
Q 544 3141 544 3541 
Q 544 4100 942 4425 
Q 1341 4750 2034 4750 
Q 2731 4750 3128 4425 
Q 3525 4100 3525 3541 
Q 3525 3141 3298 2862 
Q 3072 2584 2669 2484 
Q 3125 2378 3379 2068 
Q 3634 1759 3634 1313 
Q 3634 634 3220 271 
Q 2806 -91 2034 -91 
Q 1263 -91 848 271 
Q 434 634 434 1313 
Q 434 1759 690 2068 
Q 947 2378 1403 2484 
z
M 1172 3481 
Q 1172 3119 1398 2916 
Q 1625 2713 2034 2713 
Q 2441 2713 2670 2916 
Q 2900 3119 2900 3481 
Q 2900 3844 2670 4047 
Q 2441 4250 2034 4250 
Q 1625 4250 1398 4047 
Q 1172 3844 1172 3481 
z
" transform="scale(0.015625)"/>
       </defs>
       <use xlink:href="#DejaVuSans-38"/>
       <use xlink:href="#DejaVuSans-30" x="63.623047"/>
      </g>
     </g>
    </g>
    <g id="ytick_11">
     <g id="line2d_19">
      <path d="M 505.410781 267.812 
C 505.410781 240.308591 499.993209 213.072618 489.468111 187.662782 
C 478.943012 162.252945 463.515072 139.163403 444.067226 119.715556 
C 424.619379 100.267709 401.529836 84.83977 376.119999 74.314671 
C 350.710163 63.789572 323.47419 58.372 295.970781 58.372 
C 268.467372 58.372 241.2314 63.789572 215.821563 74.314671 
C 190.411727 84.83977 167.322184 100.267709 147.874337 119.715556 
C 128.42649 139.163403 112.998551 162.252945 102.473452 187.662782 
C 91.948353 213.072618 86.530781 240.308591 86.530781 267.812 
C 86.530781 295.315409 91.948353 322.551382 102.473452 347.961218 
C 112.998551 373.371055 128.42649 396.460597 147.874337 415.908444 
C 167.322184 435.356291 190.411727 450.78423 215.821563 461.309329 
C 241.2314 471.834428 268.467372 477.252 295.970781 477.252 
C 323.47419 477.252 350.710163 471.834428 376.119999 461.309329 
C 401.529836 450.78423 424.619379 435.356291 444.067226 415.908444 
C 463.515072 396.460597 478.943012 373.371055 489.468111 347.961218 
C 499.993209 322.551382 505.410781 295.315409 505.410781 267.812 
" clip-path="url(#p75eb7257e1)" style="fill: none; stroke: #b0b0b0; stroke-width: 0.8; stroke-linecap: square"/>
     </g>
     <g id="text_19">
      <!-- 85 -->
      <g transform="translate(489.468111 185.583094) scale(0.1 -0.1)">
       <use xlink:href="#DejaVuSans-38"/>
       <use xlink:href="#DejaVuSans-35" x="63.623047"/>
      </g>
     </g>
    </g>
   </g>
   <g id="line2d_20">
    <path d="M 388.124381 267.812 
L 395.630977 168.151805 
L 295.970781 113.812 
L 177.493626 149.334845 
L 113.141981 267.812 
L 155.366275 408.416506 
L 295.970781 443.4952 
L 445.809537 417.650755 
L 388.124381 267.812 
" clip-path="url(#p75eb7257e1)" style="fill: none; stroke: #0000ff; stroke-width: 1.25; stroke-linecap: square"/>
   </g>
   <g id="line2d_21">
    <path d="M 373.093981 267.812 
L 394.115166 169.667615 
L 295.970781 130.6904 
L 182.476636 154.317854 
L 126.053341 267.812 
L 159.37359 404.409191 
L 295.970781 425.7544 
L 445.461074 417.302293 
L 373.093981 267.812 
" clip-path="url(#p75eb7257e1)" style="fill: none; stroke: #ff0000; stroke-width: 2; stroke-linecap: square"/>
   </g>
   <g id="line2d_22">
    <path d="M 371.122781 267.812 
L 383.086337 180.696445 
L 295.970781 124.4072 
L 194.394044 166.235262 
L 137.535581 267.812 
L 159.199359 404.583422 
L 295.970781 424.0296 
L 445.635305 417.476524 
L 371.122781 267.812 
" clip-path="url(#p75eb7257e1)" style="fill: none; stroke: #ffa500; stroke-width: 1.25; stroke-linecap: square"/>
   </g>
   <g id="line2d_23">
    <path d="M 295.970781 267.812 
L 357.300132 206.482649 
L 295.970781 110.6088 
L 229.414497 201.255716 
L 130.636381 267.812 
L 158.676666 405.106115 
L 295.970781 267.812 
L 295.970781 267.812 
L 295.970781 267.812 
" clip-path="url(#p75eb7257e1)" style="fill: none; stroke: #00ffff; stroke-width: 1.25; stroke-linecap: square"/>
   </g>
   <g id="line2d_24">
    <path d="M 385.167581 267.812 
L 390.926737 172.856045 
L 295.970781 134.0168 
L 183.591715 155.432933 
L 126.693981 267.812 
L 157.631279 406.151502 
L 295.970781 267.812 
L 295.970781 267.812 
L 385.167581 267.812 
" clip-path="url(#p75eb7257e1)" style="fill: none; stroke: #2ca02c; stroke-width: 1.25; stroke-linecap: square"/>
   </g>
   <g id="patch_8">
    <path d="M 517.730781 267.812 
C 517.730781 238.690744 511.994529 209.852655 500.850306 182.948122 
C 489.706084 156.043589 473.370619 131.595838 452.778781 111.004 
C 432.186943 90.412162 407.739192 74.076697 380.834659 62.932475 
C 353.930126 51.788253 325.092038 46.052 295.970781 46.052 
C 266.849525 46.052 238.011436 51.788253 211.106903 62.932475 
C 184.202371 74.076697 159.754619 90.412162 139.162781 111.004 
C 118.570944 131.595838 102.235478 156.043589 91.091256 182.948122 
C 79.947034 209.852655 74.210781 238.690744 74.210781 267.812 
C 74.210781 296.933256 79.947034 325.771345 91.091256 352.675878 
C 102.235478 379.580411 118.570944 404.028162 139.162781 424.62 
C 159.754619 445.211838 184.202371 461.547303 211.106903 472.691525 
C 238.011436 483.835747 266.849525 489.572 295.970781 489.572 
C 325.092038 489.572 353.930126 483.835747 380.834659 472.691525 
C 407.739192 461.547303 432.186943 445.211838 452.778781 424.62 
C 473.370619 404.028162 489.706084 379.580411 500.850306 352.675878 
C 511.994529 325.771345 517.730781 296.933256 517.730781 267.812 
" style="fill: none; stroke: #000000; stroke-width: 0.8; stroke-linejoin: miter; stroke-linecap: square"/>
   </g>
   <g id="legend_1">
    <g id="patch_9">
     <path d="M 486.586 91.229687 
L 643.086781 91.229687 
Q 645.286781 91.229687 645.286781 89.029687 
L 645.286781 9.4 
Q 645.286781 7.2 643.086781 7.2 
L 486.586 7.2 
Q 484.386 7.2 484.386 9.4 
L 484.386 89.029687 
Q 484.386 91.229687 486.586 91.229687 
z
" style="fill: #ffffff; opacity: 0.8; stroke: #cccccc; stroke-linejoin: miter"/>
    </g>
    <g id="line2d_25">
     <path d="M 488.786 16.108281 
L 499.786 16.108281 
L 510.786 16.108281 
" style="fill: none; stroke: #0000ff; stroke-width: 1.25; stroke-linecap: square"/>
    </g>
    <g id="text_20">
     <!-- LVIS-INSTRUCT4V-13B -->
     <g transform="translate(519.586 19.958281) scale(0.11 -0.11)">
      <defs>
       <path id="DejaVuSans-49" d="M 628 4666 
L 1259 4666 
L 1259 0 
L 628 0 
L 628 4666 
z
" transform="scale(0.015625)"/>
       <path id="DejaVuSans-4e" d="M 628 4666 
L 1478 4666 
L 3547 763 
L 3547 4666 
L 4159 4666 
L 4159 0 
L 3309 0 
L 1241 3903 
L 1241 0 
L 628 0 
L 628 4666 
z
" transform="scale(0.015625)"/>
       <path id="DejaVuSans-52" d="M 2841 2188 
Q 3044 2119 3236 1894 
Q 3428 1669 3622 1275 
L 4263 0 
L 3584 0 
L 2988 1197 
Q 2756 1666 2539 1819 
Q 2322 1972 1947 1972 
L 1259 1972 
L 1259 0 
L 628 0 
L 628 4666 
L 2053 4666 
Q 2853 4666 3247 4331 
Q 3641 3997 3641 3322 
Q 3641 2881 3436 2590 
Q 3231 2300 2841 2188 
z
M 1259 4147 
L 1259 2491 
L 2053 2491 
Q 2509 2491 2742 2702 
Q 2975 2913 2975 3322 
Q 2975 3731 2742 3939 
Q 2509 4147 2053 4147 
L 1259 4147 
z
" transform="scale(0.015625)"/>
       <path id="DejaVuSans-55" d="M 556 4666 
L 1191 4666 
L 1191 1831 
Q 1191 1081 1462 751 
Q 1734 422 2344 422 
Q 2950 422 3222 751 
Q 3494 1081 3494 1831 
L 3494 4666 
L 4128 4666 
L 4128 1753 
Q 4128 841 3676 375 
Q 3225 -91 2344 -91 
Q 1459 -91 1007 375 
Q 556 841 556 1753 
L 556 4666 
z
" transform="scale(0.015625)"/>
       <path id="DejaVuSans-43" d="M 4122 4306 
L 4122 3641 
Q 3803 3938 3442 4084 
Q 3081 4231 2675 4231 
Q 1875 4231 1450 3742 
Q 1025 3253 1025 2328 
Q 1025 1406 1450 917 
Q 1875 428 2675 428 
Q 3081 428 3442 575 
Q 3803 722 4122 1019 
L 4122 359 
Q 3791 134 3420 21 
Q 3050 -91 2638 -91 
Q 1578 -91 968 557 
Q 359 1206 359 2328 
Q 359 3453 968 4101 
Q 1578 4750 2638 4750 
Q 3056 4750 3426 4639 
Q 3797 4528 4122 4306 
z
" transform="scale(0.015625)"/>
       <path id="DejaVuSans-31" d="M 794 531 
L 1825 531 
L 1825 4091 
L 703 3866 
L 703 4441 
L 1819 4666 
L 2450 4666 
L 2450 531 
L 3481 531 
L 3481 0 
L 794 0 
L 794 531 
z
" transform="scale(0.015625)"/>
      </defs>
      <use xlink:href="#DejaVuSans-4c"/>
      <use xlink:href="#DejaVuSans-56" x="44.712891"/>
      <use xlink:href="#DejaVuSans-49" x="113.121094"/>
      <use xlink:href="#DejaVuSans-53" x="142.613281"/>
      <use xlink:href="#DejaVuSans-2d" x="206.089844"/>
      <use xlink:href="#DejaVuSans-49" x="242.173828"/>
      <use xlink:href="#DejaVuSans-4e" x="271.666016"/>
      <use xlink:href="#DejaVuSans-53" x="346.470703"/>
      <use xlink:href="#DejaVuSans-54" x="409.947266"/>
      <use xlink:href="#DejaVuSans-52" x="471.03125"/>
      <use xlink:href="#DejaVuSans-55" x="540.513672"/>
      <use xlink:href="#DejaVuSans-43" x="613.707031"/>
      <use xlink:href="#DejaVuSans-54" x="683.53125"/>
      <use xlink:href="#DejaVuSans-34" x="744.615234"/>
      <use xlink:href="#DejaVuSans-56" x="808.238281"/>
      <use xlink:href="#DejaVuSans-2d" x="870.771484"/>
      <use xlink:href="#DejaVuSans-31" x="906.855469"/>
      <use xlink:href="#DejaVuSans-33" x="970.478516"/>
      <use xlink:href="#DejaVuSans-42" x="1034.101562"/>
     </g>
    </g>
    <g id="line2d_26">
     <path d="M 488.786 32.254219 
L 499.786 32.254219 
L 510.786 32.254219 
" style="fill: none; stroke: #ff0000; stroke-width: 2; stroke-linecap: square"/>
    </g>
    <g id="text_21">
     <!-- OmniFusion-7B -->
     <g transform="translate(519.586 36.104219) scale(0.11 -0.11)">
      <defs>
       <path id="DejaVuSans-46" d="M 628 4666 
L 3309 4666 
L 3309 4134 
L 1259 4134 
L 1259 2759 
L 3109 2759 
L 3109 2228 
L 1259 2228 
L 1259 0 
L 628 0 
L 628 4666 
z
" transform="scale(0.015625)"/>
       <path id="DejaVuSans-75" d="M 544 1381 
L 544 3500 
L 1119 3500 
L 1119 1403 
Q 1119 906 1312 657 
Q 1506 409 1894 409 
Q 2359 409 2629 706 
Q 2900 1003 2900 1516 
L 2900 3500 
L 3475 3500 
L 3475 0 
L 2900 0 
L 2900 538 
Q 2691 219 2414 64 
Q 2138 -91 1772 -91 
Q 1169 -91 856 284 
Q 544 659 544 1381 
z
M 1991 3584 
L 1991 3584 
z
" transform="scale(0.015625)"/>
       <path id="DejaVuSans-73" d="M 2834 3397 
L 2834 2853 
Q 2591 2978 2328 3040 
Q 2066 3103 1784 3103 
Q 1356 3103 1142 2972 
Q 928 2841 928 2578 
Q 928 2378 1081 2264 
Q 1234 2150 1697 2047 
L 1894 2003 
Q 2506 1872 2764 1633 
Q 3022 1394 3022 966 
Q 3022 478 2636 193 
Q 2250 -91 1575 -91 
Q 1294 -91 989 -36 
Q 684 19 347 128 
L 347 722 
Q 666 556 975 473 
Q 1284 391 1588 391 
Q 1994 391 2212 530 
Q 2431 669 2431 922 
Q 2431 1156 2273 1281 
Q 2116 1406 1581 1522 
L 1381 1569 
Q 847 1681 609 1914 
Q 372 2147 372 2553 
Q 372 3047 722 3315 
Q 1072 3584 1716 3584 
Q 2034 3584 2315 3537 
Q 2597 3491 2834 3397 
z
" transform="scale(0.015625)"/>
       <path id="DejaVuSans-6f" d="M 1959 3097 
Q 1497 3097 1228 2736 
Q 959 2375 959 1747 
Q 959 1119 1226 758 
Q 1494 397 1959 397 
Q 2419 397 2687 759 
Q 2956 1122 2956 1747 
Q 2956 2369 2687 2733 
Q 2419 3097 1959 3097 
z
M 1959 3584 
Q 2709 3584 3137 3096 
Q 3566 2609 3566 1747 
Q 3566 888 3137 398 
Q 2709 -91 1959 -91 
Q 1206 -91 779 398 
Q 353 888 353 1747 
Q 353 2609 779 3096 
Q 1206 3584 1959 3584 
z
" transform="scale(0.015625)"/>
      </defs>
      <use xlink:href="#DejaVuSans-4f"/>
      <use xlink:href="#DejaVuSans-6d" x="78.710938"/>
      <use xlink:href="#DejaVuSans-6e" x="176.123047"/>
      <use xlink:href="#DejaVuSans-69" x="239.501953"/>
      <use xlink:href="#DejaVuSans-46" x="267.285156"/>
      <use xlink:href="#DejaVuSans-75" x="319.304688"/>
      <use xlink:href="#DejaVuSans-73" x="382.683594"/>
      <use xlink:href="#DejaVuSans-69" x="434.783203"/>
      <use xlink:href="#DejaVuSans-6f" x="462.566406"/>
      <use xlink:href="#DejaVuSans-6e" x="523.748047"/>
      <use xlink:href="#DejaVuSans-2d" x="587.126953"/>
      <use xlink:href="#DejaVuSans-37" x="623.210938"/>
      <use xlink:href="#DejaVuSans-42" x="686.833984"/>
     </g>
    </g>
    <g id="line2d_27">
     <path d="M 488.786 48.400156 
L 499.786 48.400156 
L 510.786 48.400156 
" style="fill: none; stroke: #ffa500; stroke-width: 1.25; stroke-linecap: square"/>
    </g>
    <g id="text_22">
     <!-- LLaVA-1.5-7B -->
     <g transform="translate(519.586 52.250156) scale(0.11 -0.11)">
      <defs>
       <path id="DejaVuSans-2e" d="M 684 794 
L 1344 794 
L 1344 0 
L 684 0 
L 684 794 
z
" transform="scale(0.015625)"/>
      </defs>
      <use xlink:href="#DejaVuSans-4c"/>
      <use xlink:href="#DejaVuSans-4c" x="55.712891"/>
      <use xlink:href="#DejaVuSans-61" x="111.425781"/>
      <use xlink:href="#DejaVuSans-56" x="172.705078"/>
      <use xlink:href="#DejaVuSans-41" x="234.738281"/>
      <use xlink:href="#DejaVuSans-2d" x="300.896484"/>
      <use xlink:href="#DejaVuSans-31" x="336.980469"/>
      <use xlink:href="#DejaVuSans-2e" x="400.603516"/>
      <use xlink:href="#DejaVuSans-35" x="432.390625"/>
      <use xlink:href="#DejaVuSans-2d" x="496.013672"/>
      <use xlink:href="#DejaVuSans-37" x="532.097656"/>
      <use xlink:href="#DejaVuSans-42" x="595.720703"/>
     </g>
    </g>
    <g id="line2d_28">
     <path d="M 488.786 64.546094 
L 499.786 64.546094 
L 510.786 64.546094 
" style="fill: none; stroke: #00ffff; stroke-width: 1.25; stroke-linecap: square"/>
    </g>
    <g id="text_23">
     <!-- QWEN-VL-7B -->
     <g transform="translate(519.586 68.396094) scale(0.11 -0.11)">
      <use xlink:href="#DejaVuSans-51"/>
      <use xlink:href="#DejaVuSans-57" x="78.710938"/>
      <use xlink:href="#DejaVuSans-45" x="177.587891"/>
      <use xlink:href="#DejaVuSans-4e" x="240.771484"/>
      <use xlink:href="#DejaVuSans-2d" x="315.576172"/>
      <use xlink:href="#DejaVuSans-56" x="345.785156"/>
      <use xlink:href="#DejaVuSans-4c" x="414.193359"/>
      <use xlink:href="#DejaVuSans-2d" x="468.15625"/>
      <use xlink:href="#DejaVuSans-37" x="504.240234"/>
      <use xlink:href="#DejaVuSans-42" x="567.863281"/>
     </g>
    </g>
    <g id="line2d_29">
     <path d="M 488.786 80.692031 
L 499.786 80.692031 
L 510.786 80.692031 
" style="fill: none; stroke: #2ca02c; stroke-width: 1.25; stroke-linecap: square"/>
    </g>
    <g id="text_24">
     <!-- mPLUG-Owl2-8B -->
     <g transform="translate(519.586 84.542031) scale(0.11 -0.11)">
      <defs>
       <path id="DejaVuSans-47" d="M 3809 666 
L 3809 1919 
L 2778 1919 
L 2778 2438 
L 4434 2438 
L 4434 434 
Q 4069 175 3628 42 
Q 3188 -91 2688 -91 
Q 1594 -91 976 548 
Q 359 1188 359 2328 
Q 359 3472 976 4111 
Q 1594 4750 2688 4750 
Q 3144 4750 3555 4637 
Q 3966 4525 4313 4306 
L 4313 3634 
Q 3963 3931 3569 4081 
Q 3175 4231 2741 4231 
Q 1884 4231 1454 3753 
Q 1025 3275 1025 2328 
Q 1025 1384 1454 906 
Q 1884 428 2741 428 
Q 3075 428 3337 486 
Q 3600 544 3809 666 
z
" transform="scale(0.015625)"/>
       <path id="DejaVuSans-77" d="M 269 3500 
L 844 3500 
L 1563 769 
L 2278 3500 
L 2956 3500 
L 3675 769 
L 4391 3500 
L 4966 3500 
L 4050 0 
L 3372 0 
L 2619 2869 
L 1863 0 
L 1184 0 
L 269 3500 
z
" transform="scale(0.015625)"/>
       <path id="DejaVuSans-6c" d="M 603 4863 
L 1178 4863 
L 1178 0 
L 603 0 
L 603 4863 
z
" transform="scale(0.015625)"/>
      </defs>
      <use xlink:href="#DejaVuSans-6d"/>
      <use xlink:href="#DejaVuSans-50" x="97.412109"/>
      <use xlink:href="#DejaVuSans-4c" x="157.714844"/>
      <use xlink:href="#DejaVuSans-55" x="208.427734"/>
      <use xlink:href="#DejaVuSans-47" x="281.621094"/>
      <use xlink:href="#DejaVuSans-2d" x="359.111328"/>
      <use xlink:href="#DejaVuSans-4f" x="397.945312"/>
      <use xlink:href="#DejaVuSans-77" x="476.65625"/>
      <use xlink:href="#DejaVuSans-6c" x="558.443359"/>
      <use xlink:href="#DejaVuSans-32" x="586.226562"/>
      <use xlink:href="#DejaVuSans-2d" x="649.849609"/>
      <use xlink:href="#DejaVuSans-38" x="685.933594"/>
      <use xlink:href="#DejaVuSans-42" x="749.556641"/>
     </g>
    </g>
   </g>
  </g>
 </g>
 <defs>
  <clipPath id="p75eb7257e1">
   <path d="M 517.730781 267.812 
C 517.730781 238.690744 511.994529 209.852655 500.850306 182.948122 
C 489.706084 156.043589 473.370619 131.595838 452.778781 111.004 
C 432.186943 90.412162 407.739192 74.076697 380.834659 62.932475 
C 353.930126 51.788253 325.092038 46.052 295.970781 46.052 
C 266.849525 46.052 238.011436 51.788253 211.106903 62.932475 
C 184.202371 74.076697 159.754619 90.412162 139.162781 111.004 
C 118.570944 131.595838 102.235478 156.043589 91.091256 182.948122 
C 79.947034 209.852655 74.210781 238.690744 74.210781 267.812 
C 74.210781 296.933256 79.947034 325.771345 91.091256 352.675878 
C 102.235478 379.580411 118.570944 404.028162 139.162781 424.62 
C 159.754619 445.211838 184.202371 461.547303 211.106903 472.691525 
C 238.011436 483.835747 266.849525 489.572 295.970781 489.572 
C 325.092038 489.572 353.930126 483.835747 380.834659 472.691525 
C 407.739192 461.547303 432.186943 445.211838 452.778781 424.62 
C 473.370619 404.028162 489.706084 379.580411 500.850306 352.675878 
C 511.994529 325.771345 517.730781 296.933256 517.730781 267.812 
M 295.970781 267.812 
C 295.970781 267.812 295.970781 267.812 295.970781 267.812 
C 295.970781 267.812 295.970781 267.812 295.970781 267.812 
C 295.970781 267.812 295.970781 267.812 295.970781 267.812 
C 295.970781 267.812 295.970781 267.812 295.970781 267.812 
C 295.970781 267.812 295.970781 267.812 295.970781 267.812 
C 295.970781 267.812 295.970781 267.812 295.970781 267.812 
C 295.970781 267.812 295.970781 267.812 295.970781 267.812 
C 295.970781 267.812 295.970781 267.812 295.970781 267.812 
C 295.970781 267.812 295.970781 267.812 295.970781 267.812 
C 295.970781 267.812 295.970781 267.812 295.970781 267.812 
C 295.970781 267.812 295.970781 267.812 295.970781 267.812 
C 295.970781 267.812 295.970781 267.812 295.970781 267.812 
C 295.970781 267.812 295.970781 267.812 295.970781 267.812 
C 295.970781 267.812 295.970781 267.812 295.970781 267.812 
C 295.970781 267.812 295.970781 267.812 295.970781 267.812 
C 295.970781 267.812 295.970781 267.812 295.970781 267.812 
z
"/>
  </clipPath>
 </defs>
</svg>
